<svg width="104" height="34" viewBox="0 0 104 34" fill="none" xmlns="http://www.w3.org/2000/svg">
<path d="M9.20483 0.343781V0.488291L8.59852 0.632799V7.03567L9.20483 7.18018V7.32469H6.33037V7.18018L6.93671 7.03567V1.57767L4.5563 7.42473H4.25311L1.16531 1.57767V6.88004L1.97375 7.18018V7.32469H0.0537109V7.18018L0.862155 6.88004V0.632799L0.255813 0.488291V0.343781H1.51339C1.70427 0.343781 1.8727 0.366012 2.00744 0.410476C2.14218 0.454941 2.27694 0.510521 2.37799 0.588334C2.49028 0.666146 2.5801 0.755077 2.6587 0.855122C2.7373 0.955167 2.80467 1.07744 2.87204 1.19972L5.0728 5.36825L6.75705 1.19972C6.81319 1.05521 6.86935 0.932934 6.94795 0.832889C7.01532 0.732844 7.10512 0.643916 7.20618 0.566103C7.30724 0.488291 7.43077 0.432708 7.57674 0.39936C7.7227 0.366012 7.90235 0.343781 8.12691 0.343781H9.20483Z" fill="#3C2B4A"/>
<path d="M12.7981 2.2002C13.2135 2.2002 13.5953 2.25578 13.9209 2.37805C14.2466 2.50033 14.5273 2.67819 14.7631 2.90051C14.9989 3.13395 15.1673 3.41185 15.2908 3.73421C15.4143 4.05658 15.4704 4.43453 15.4704 4.84582C15.4704 5.25712 15.4143 5.63507 15.2908 5.95743C15.1673 6.2798 14.9876 6.5577 14.7631 6.79114C14.5273 7.02458 14.2466 7.19132 13.9209 7.3136C13.5953 7.43587 13.2135 7.49145 12.7981 7.49145C12.3826 7.49145 12.0009 7.43587 11.6753 7.3136C11.3496 7.19132 11.0689 7.01346 10.8331 6.79114C10.5973 6.5577 10.4289 6.2798 10.3054 5.95743C10.1819 5.63507 10.1257 5.25712 10.1257 4.84582C10.1257 4.43453 10.1819 4.05658 10.3054 3.73421C10.4289 3.41185 10.6086 3.13395 10.8331 2.90051C11.0689 2.66707 11.3496 2.50033 11.6753 2.37805C12.0009 2.25578 12.3714 2.2002 12.7981 2.2002ZM12.7981 7.30248C12.9104 7.30248 13.0227 7.26913 13.1462 7.19132C13.2585 7.11351 13.3595 6.99123 13.4493 6.80226C13.5391 6.61328 13.6178 6.36873 13.6739 6.05748C13.73 5.73511 13.7637 5.33493 13.7637 4.85694C13.7637 4.36783 13.73 3.96765 13.6739 3.6564C13.6178 3.34515 13.5391 3.08948 13.4493 2.91162C13.3595 2.73377 13.2585 2.60038 13.1462 2.52256C13.0339 2.44475 12.9216 2.4114 12.7981 2.4114C12.6858 2.4114 12.5735 2.44475 12.45 2.52256C12.3377 2.60038 12.2367 2.72265 12.1468 2.91162C12.057 3.1006 11.9784 3.34515 11.9223 3.6564C11.8661 3.97877 11.8324 4.37895 11.8324 4.85694C11.8324 5.34605 11.8661 5.74623 11.9223 6.05748C11.9784 6.36873 12.057 6.6244 12.1468 6.80226C12.2367 6.98011 12.3377 7.11351 12.45 7.19132C12.5623 7.25802 12.6746 7.30248 12.7981 7.30248Z" fill="#3C2B4A"/>
<path d="M20.3772 0.343781C20.9835 0.343781 21.2867 0.643914 21.2867 1.24418V7.04678L21.893 7.19129V7.3358H20.9835C20.7365 7.3358 20.5456 7.30245 20.3996 7.22464C20.2537 7.14683 20.1301 7.0579 20.0515 6.96897C19.9505 6.85781 19.8719 6.72442 19.827 6.59102C19.7372 6.76888 19.6249 6.91339 19.4901 7.04678C19.3778 7.15794 19.2206 7.25799 19.0298 7.35803C18.8389 7.45808 18.6143 7.50254 18.356 7.50254C18.0641 7.50254 17.7946 7.44696 17.5476 7.3358C17.2894 7.22464 17.076 7.0579 16.8964 6.83558C16.7167 6.61325 16.5595 6.33535 16.4585 6.01299C16.3462 5.6795 16.3013 5.30156 16.3013 4.85691C16.3013 4.41227 16.3574 4.03432 16.4585 3.70084C16.5708 3.36736 16.7167 3.10057 16.9188 2.87825C17.1097 2.65593 17.3455 2.48919 17.615 2.37802C17.8845 2.26686 18.1876 2.21128 18.5245 2.21128C18.7042 2.21128 18.8613 2.23352 19.0073 2.26686C19.1533 2.31133 19.2768 2.35579 19.3778 2.41137C19.5013 2.46695 19.6024 2.53365 19.6922 2.61146V0.666148L19.0859 0.521638V0.37713H20.3772V0.343781ZM19.6698 2.90048C19.5912 2.82267 19.5238 2.75597 19.434 2.70039C19.3554 2.64481 19.2768 2.60035 19.187 2.55588C19.0971 2.51142 19.0073 2.5003 18.9063 2.5003C18.7827 2.5003 18.6592 2.53365 18.5469 2.60035C18.4347 2.66704 18.3448 2.7782 18.255 2.94495C18.1764 3.11169 18.109 3.35624 18.0641 3.65637C18.0192 3.96762 17.9968 4.35669 17.9968 4.8458C17.9968 5.32379 18.0192 5.70174 18.0641 6.00187C18.109 6.302 18.1652 6.53544 18.2438 6.70218C18.3112 6.86892 18.3898 6.9912 18.4908 7.04678C18.5806 7.10236 18.6705 7.13571 18.7603 7.13571C18.9175 7.13571 19.0522 7.09125 19.1645 7.01343C19.2768 6.93562 19.3666 6.83558 19.4452 6.73553C19.535 6.61325 19.6137 6.47986 19.681 6.33535V2.90048H19.6698Z" fill="#3C2B4A"/>
<path d="M25.2724 7.50268C24.4078 7.50268 23.7342 7.26925 23.2626 6.80237C22.7798 6.33549 22.5439 5.67964 22.5439 4.85705C22.5439 4.44576 22.6001 4.06781 22.7236 3.74545C22.8471 3.42308 23.0156 3.14518 23.2289 2.91174C23.4422 2.6783 23.7005 2.51156 24.0149 2.38928C24.318 2.26701 24.6549 2.21143 25.0254 2.21143C25.4072 2.21143 25.744 2.26701 26.036 2.36705C26.3392 2.47821 26.5862 2.62272 26.7995 2.80058C27.0128 2.97844 27.17 3.18964 27.2823 3.4342C27.3946 3.67875 27.4507 3.93442 27.4507 4.21232C27.4507 4.30125 27.4508 4.39018 27.4395 4.45688C27.4283 4.52357 27.4171 4.59027 27.4058 4.64585C27.3834 4.71255 27.3721 4.76813 27.3497 4.81259C27.0577 4.86817 26.7434 4.92375 26.4065 4.9571C26.1258 5.00156 25.8002 5.03491 25.4296 5.05714C25.0591 5.07938 24.6773 5.10161 24.2731 5.10161C24.2731 5.5129 24.3068 5.8575 24.3629 6.13541C24.4191 6.41331 24.5089 6.63563 24.61 6.79125C24.7222 6.95799 24.8458 7.06916 24.9917 7.13585C25.1377 7.20255 25.3061 7.2359 25.4746 7.2359C25.6767 7.2359 25.8675 7.20255 26.0472 7.12474C26.2268 7.04693 26.384 6.958 26.5076 6.83572C26.6423 6.71344 26.7434 6.56893 26.822 6.41331C26.9006 6.25768 26.9342 6.10206 26.9342 5.93532H27.1813C27.1813 6.13541 27.1364 6.32438 27.0465 6.51335C26.9567 6.70232 26.822 6.86907 26.6535 7.01358C26.4851 7.15809 26.283 7.26925 26.0472 7.35817C25.8226 7.45822 25.5644 7.50268 25.2724 7.50268ZM24.2619 4.84594C24.4865 4.84594 24.6886 4.84594 24.8682 4.83482C25.0479 4.82371 25.1938 4.81259 25.3174 4.80147C25.4633 4.79036 25.5756 4.76813 25.6767 4.75701C25.6879 4.69031 25.7104 4.6125 25.7216 4.53469C25.7328 4.45688 25.744 4.37906 25.7553 4.29013C25.7665 4.2012 25.7665 4.10116 25.7665 4.00112C25.7665 3.70098 25.744 3.44531 25.6991 3.24522C25.6542 3.04513 25.5981 2.87839 25.5195 2.745C25.4521 2.62272 25.3735 2.52268 25.2724 2.47821C25.1714 2.43375 25.0928 2.4004 25.003 2.4004C24.9131 2.4004 24.8233 2.43375 24.7335 2.50044C24.6437 2.56714 24.5651 2.68942 24.4865 2.85616C24.4191 3.03402 24.3517 3.27857 24.3068 3.60094C24.2619 3.9233 24.2619 4.3346 24.2619 4.84594Z" fill="#3C2B4A"/>
<path d="M31.6954 2.54475C31.4933 2.54475 31.3136 2.58922 31.1564 2.66703C30.9992 2.74484 30.8645 2.84489 30.7522 2.94493C30.6287 3.06721 30.5276 3.20061 30.4266 3.34511V7.04677L31.0329 7.19128V7.33579H28.2034V7.19128L28.8097 7.04677V2.6448L28.2034 2.50029V2.35578H29.1129C29.3487 2.35578 29.5395 2.40025 29.6967 2.47806C29.8427 2.55587 29.9662 2.6448 30.056 2.73373C30.1571 2.84489 30.2357 2.96717 30.2806 3.10056C30.3817 2.95605 30.5052 2.82266 30.6511 2.70038C30.7747 2.60034 30.9319 2.51141 31.1228 2.42248C31.3136 2.33355 31.527 2.3002 31.7852 2.3002C32.1445 2.3002 32.414 2.38913 32.5937 2.54475C32.7733 2.7115 32.8519 2.94494 32.8519 3.24507C32.8519 3.46739 32.7845 3.65636 32.6498 3.78976C32.5151 3.92315 32.3242 3.98985 32.0996 3.98985C32.0435 3.98985 31.9985 3.98985 31.9424 3.98985C31.8863 3.98985 31.8526 3.97873 31.8189 3.97873C31.774 3.96762 31.7291 3.96761 31.6954 3.94538V2.54475Z" fill="#3C2B4A"/>
<path d="M37.1972 3.84538C37.1972 3.62306 37.1748 3.42297 37.1299 3.25623C37.085 3.08949 37.0288 2.9561 36.9502 2.85605C36.8829 2.74489 36.8043 2.66708 36.7032 2.62261C36.6134 2.57815 36.5235 2.5448 36.4337 2.5448C36.2765 2.5448 36.1418 2.58927 36.0295 2.66708C35.9172 2.74489 35.8162 2.84494 35.7488 2.94498C35.659 3.06726 35.5916 3.20065 35.5242 3.34516V7.04682L36.1306 7.19133V7.33584H33.301V7.19133L33.9073 7.04682V2.64485L33.301 2.50034V2.35583H34.2105C34.4463 2.35583 34.6372 2.40029 34.7944 2.47811C34.9404 2.55592 35.0639 2.64485 35.1537 2.73378C35.2548 2.84494 35.3333 2.96721 35.3782 3.10061C35.4681 2.93386 35.5804 2.77824 35.7151 2.64485C35.8274 2.53369 35.9846 2.43364 36.1642 2.3336C36.3439 2.23355 36.5797 2.18909 36.8492 2.18909C37.1411 2.18909 37.4106 2.23355 37.6464 2.3336C37.8934 2.42253 38.0955 2.55592 38.2639 2.70043C38.4324 2.85605 38.5671 3.02279 38.6682 3.22288C38.7692 3.42297 38.8141 3.62306 38.8141 3.83427V7.0357L39.4205 7.18021V7.32472H38.1068C37.5004 7.32472 37.1972 7.02459 37.1972 6.42432V3.84538Z" fill="#3C2B4A"/>
<path d="M1.12061 14.3612V13.9499H8.9243V14.3612L7.28497 14.7725V23.1651H13.1686V14.7725L11.5293 14.3612V13.9499H19.333V14.3612L17.6937 14.7725V32.1136L19.333 32.5249V32.9362H11.5293V32.5138L13.1686 32.1025V23.8432H7.28497V32.1025L8.9243 32.5138V32.9251H1.12061V32.5138L2.75994 32.1025V14.7614L1.12061 14.3612Z" fill="#3C2B4A"/>
<path d="M29.034 18.9633C30.1681 18.9633 31.1786 19.13 32.0769 19.4524C32.9752 19.7747 33.7275 20.2527 34.3563 20.8752C34.9851 21.4977 35.4679 22.2536 35.7935 23.1429C36.1191 24.0322 36.2876 25.0326 36.2876 26.1554C36.2876 27.2781 36.1191 28.2785 35.7935 29.1678C35.4679 30.0571 34.9851 30.8019 34.3563 31.4244C33.7275 32.0469 32.964 32.5249 32.0769 32.8473C31.1786 33.1696 30.1681 33.3364 29.034 33.3364C27.9 33.3364 26.8894 33.1696 25.9912 32.8473C25.0929 32.5249 24.3406 32.0469 23.7118 31.4244C23.083 30.8019 22.6002 30.046 22.2746 29.1678C21.9489 28.2785 21.7805 27.2781 21.7805 26.1554C21.7805 25.0326 21.9489 24.0322 22.2746 23.1429C22.6002 22.2536 23.083 21.5088 23.7118 20.8752C24.3406 20.2416 25.1041 19.7747 25.9912 19.4524C26.8894 19.13 27.9 18.9633 29.034 18.9633ZM29.034 32.7806C29.3484 32.7806 29.6516 32.6805 29.966 32.4804C30.2804 32.2803 30.5499 31.9357 30.7969 31.4355C31.0439 30.9353 31.246 30.2572 31.4032 29.4013C31.5604 28.5453 31.639 27.456 31.639 26.1331C31.639 24.8103 31.5604 23.7209 31.4032 22.865C31.246 22.0091 31.0439 21.331 30.7969 20.8308C30.5499 20.3305 30.2692 19.9859 29.966 19.7858C29.6628 19.5858 29.3484 19.4857 29.034 19.4857C28.7196 19.4857 28.4165 19.5858 28.1021 19.7858C27.7877 19.9859 27.5182 20.3305 27.2712 20.8308C27.0241 21.331 26.8221 22.0091 26.6649 22.865C26.5077 23.7209 26.429 24.8103 26.429 26.1331C26.429 27.456 26.5077 28.5453 26.6649 29.4013C26.8221 30.2572 27.0241 30.9353 27.2712 31.4355C27.5182 31.9357 27.7989 32.2803 28.1021 32.4804C28.4165 32.6805 28.7196 32.7806 29.034 32.7806Z" fill="#3C2B4A"/>
<path d="M56.802 23.4319C56.802 22.7872 56.7459 22.2314 56.6336 21.7979C56.5213 21.3643 56.3866 20.9975 56.2069 20.7196C56.0273 20.4417 55.8364 20.2416 55.6343 20.1082C55.4209 19.986 55.2188 19.9193 55.0167 19.9193C54.6686 19.9193 54.3655 20.0304 54.096 20.2527C53.8265 20.4751 53.6019 20.7307 53.3998 20.9975C53.1865 21.3199 52.9844 21.6867 52.8272 22.0758V32.1025L54.4777 32.5138V32.9251H46.82V32.5138L48.4593 32.1025V23.4319C48.4593 22.7872 48.4032 22.2314 48.2909 21.7979C48.1786 21.3643 48.0439 20.9975 47.8642 20.7196C47.6846 20.4417 47.4937 20.2416 47.2916 20.1082C47.0782 19.986 46.8761 19.9193 46.674 19.9193C46.3259 19.9193 46.0228 20.0304 45.7533 20.2527C45.4838 20.4751 45.2592 20.7307 45.0571 20.9975C44.8325 21.3199 44.6417 21.6867 44.4845 22.0758V32.1025L46.1238 32.5138V32.9251H38.4661V32.5138L40.1054 32.1025V20.186L38.4661 19.7747V19.3635H40.9251C41.5651 19.3635 42.0928 19.4746 42.497 19.6858C42.9125 19.897 43.2269 20.1416 43.4739 20.3861C43.7434 20.6974 43.9455 21.0309 44.0803 21.3866C44.316 20.9308 44.608 20.5306 44.9561 20.1638C45.2705 19.8526 45.6522 19.5747 46.1014 19.319C46.5617 19.0633 47.1119 18.941 47.7744 18.941C48.8635 18.941 49.8179 19.1856 50.6039 19.6636C51.4011 20.1416 52.0075 20.7641 52.423 21.52C52.6588 21.0531 52.9507 20.6307 53.2988 20.2416C53.6132 19.9193 53.9949 19.6191 54.4441 19.3523C54.9044 19.0855 55.4546 18.941 56.1171 18.941C56.8694 18.941 57.5431 19.0633 58.1719 19.2968C58.7894 19.5302 59.3284 19.8526 59.7775 20.2639C60.2267 20.6752 60.5747 21.142 60.8218 21.6867C61.0688 22.2314 61.1923 22.8094 61.1923 23.4208V32.0914L62.8316 32.5027V32.914H59.2722C57.6329 32.914 56.8132 32.1025 56.8132 30.4795V23.4319H56.802Z" fill="#3C2B4A"/>
<path d="M71.8592 33.3253C69.5237 33.3253 67.7047 32.6916 66.4135 31.4133C65.1222 30.1349 64.4709 28.3897 64.4709 26.1443C64.4709 25.0215 64.6394 24.0211 64.965 23.1318C65.2906 22.2425 65.751 21.4977 66.3349 20.8641C66.9187 20.2416 67.6261 19.7636 68.457 19.4413C69.2879 19.1189 70.1974 18.9521 71.1743 18.9521C72.1961 18.9521 73.1168 19.0967 73.9253 19.3857C74.7337 19.6747 75.4299 20.0638 75.9913 20.5529C76.5527 21.042 76.9906 21.62 77.2938 22.2759C77.5969 22.9317 77.7429 23.632 77.7429 24.3768C77.7429 24.6325 77.7317 24.8548 77.698 25.0438C77.6643 25.2327 77.6418 25.3995 77.5969 25.544C77.5408 25.7218 77.4959 25.8775 77.4622 25.9997C76.6537 26.1665 75.8116 26.2999 74.9134 26.411C74.1498 26.5222 73.2628 26.6111 72.2634 26.7001C71.2641 26.7779 70.2087 26.8223 69.1195 26.8223C69.1195 27.9451 69.1981 28.8788 69.3665 29.6236C69.535 30.3684 69.7595 30.9686 70.0515 31.4133C70.3434 31.8579 70.6915 32.1692 71.0957 32.3582C71.4999 32.5471 71.9378 32.6472 72.4094 32.6472C72.9596 32.6472 73.4761 32.5471 73.9589 32.347C74.4418 32.1469 74.8572 31.8802 75.2165 31.5467C75.5758 31.2132 75.8565 30.8352 76.0699 30.4128C76.2832 29.9904 76.3843 29.5569 76.3843 29.1234H77.0692C77.0692 29.6681 76.9457 30.1905 76.6987 30.6907C76.4516 31.2021 76.1036 31.6467 75.6432 32.0358C75.1828 32.4248 74.6439 32.7361 74.0039 32.9695C73.3526 33.203 72.634 33.3253 71.8592 33.3253ZM69.1195 26.1443C69.7371 26.1443 70.2873 26.1331 70.7588 26.0998C71.2304 26.0664 71.6347 26.0442 71.9603 26.0109C72.3421 25.9775 72.6677 25.9331 72.9484 25.8775C72.9821 25.6996 73.027 25.4995 73.0831 25.2772C73.1168 25.0771 73.1505 24.8548 73.1729 24.6102C73.1954 24.3657 73.2179 24.11 73.2179 23.8432C73.2179 23.0318 73.1505 22.3537 73.027 21.7979C72.9035 21.2421 72.735 20.7974 72.5442 20.4528C72.3533 20.1082 72.1287 19.8637 71.8929 19.7192C71.6459 19.5746 71.3988 19.4968 71.163 19.4968C70.9273 19.4968 70.6802 19.5858 70.4332 19.7525C70.1862 19.9304 69.9729 20.2527 69.782 20.7307C69.5911 21.2087 69.4339 21.8868 69.2992 22.7538C69.1869 23.6209 69.1195 24.7547 69.1195 26.1443Z" fill="#3C2B4A"/>
<path d="M91.1832 32.6471V21.6533L81.3696 13.961V32.6471H91.1832Z" fill="#3C2B4A"/>
<path d="M103.321 32.6471V21.6533L93.6648 13.961V32.6471H103.321Z" fill="#3C2B4A"/>
</svg>
