<svg width="81" height="80" viewBox="0 0 81 80" fill="none" xmlns="http://www.w3.org/2000/svg">
<g style="mix-blend-mode:multiply">
<path d="M40.5636 79.1244C62.4789 79.1244 80.2447 61.5363 80.2447 39.8402C80.2447 18.1441 62.4789 0.555908 40.5636 0.555908C18.6484 0.555908 0.882568 18.1441 0.882568 39.8402C0.882568 61.5363 18.6484 79.1244 40.5636 79.1244Z" fill="white"/>
<path d="M40.5635 79.6801C18.3763 79.6801 0.321045 61.8055 0.321045 39.8401C0.321045 17.8747 18.3763 0 40.5635 0C62.7508 0 80.806 17.8747 80.806 39.8401C80.806 61.8055 62.7508 79.6801 40.5635 79.6801ZM40.5635 1.11161C18.9938 1.11161 1.44388 18.4861 1.44388 39.8401C1.44388 61.1941 18.9938 78.5685 40.5635 78.5685C62.1332 78.5685 79.6832 61.1941 79.6832 39.8401C79.6832 18.4861 62.1332 1.11161 40.5635 1.11161Z" fill="#3C2B4A"/>
<path d="M46.2229 4.54647C46.4924 4.5687 46.7282 4.57981 46.9191 4.57981L46.8966 4.75767C46.5822 4.80214 46.3127 5.03557 46.0994 5.48022L43.427 10.7715L43.3484 10.7604L43.2811 10.7492L41.5856 4.8466C41.4733 4.45754 41.2824 4.24633 41.0129 4.21298L41.0354 4.03513C41.2824 4.07959 41.608 4.11294 42.0123 4.1574C42.54 4.20187 42.933 4.23522 43.1912 4.23522L43.1688 4.41307C42.933 4.40196 42.7646 4.41307 42.6635 4.44642C42.5625 4.47977 42.5063 4.5687 42.4951 4.67986C42.4839 4.7799 42.5063 4.92441 42.5625 5.11339L43.8088 9.62652L45.6615 5.93598C45.8187 5.63584 45.8973 5.39129 45.9197 5.21343C45.9422 5.02446 45.8861 4.87995 45.7625 4.7799C45.639 4.67986 45.4369 4.62428 45.1674 4.59093L45.1899 4.41307C45.5155 4.46865 45.8636 4.51312 46.2229 4.54647Z" fill="#3C2B4A"/>
<path d="M53.7686 6.89197C53.6563 6.89197 53.5664 6.93644 53.4991 7.02537C53.4317 7.11429 53.3531 7.2588 53.2745 7.47001L51.6688 11.6941C51.5902 11.9053 51.5453 12.0721 51.5453 12.1832C51.5453 12.2944 51.579 12.3833 51.6576 12.45C51.7362 12.5167 51.8822 12.5945 52.0843 12.6835L52.0169 12.8502C51.7587 12.739 51.3994 12.5945 50.939 12.4167C50.445 12.2277 50.0744 12.1054 49.8274 12.0276L49.8948 11.8609C50.1081 11.9276 50.2653 11.9609 50.3664 11.9609C50.4674 11.9609 50.5685 11.9164 50.6358 11.8275C50.7032 11.7386 50.7818 11.5941 50.8604 11.3829L52.4661 7.15876C52.5447 6.94755 52.5896 6.78081 52.5896 6.66965C52.5896 6.55849 52.5559 6.46956 52.4773 6.40286C52.3987 6.33617 52.2527 6.25836 52.0506 6.16943L52.118 6.00269C52.3538 6.10273 52.7131 6.24724 53.2071 6.43621C53.6675 6.61407 54.038 6.73635 54.3075 6.81416L54.2401 6.9809C54.038 6.91421 53.8808 6.88086 53.7686 6.89197Z" fill="#3C2B4A"/>
<path d="M63.7614 12.7723C63.6492 12.7501 63.5369 12.7834 63.4358 12.8501C63.3348 12.9168 63.2113 13.0502 63.0765 13.2392L59.8203 17.6078L59.6519 17.4855L60.0898 10.4602L57.2041 14.3286C57.0693 14.5176 56.9795 14.6732 56.9346 14.7955C56.8897 14.9177 56.9121 15.0289 56.9683 15.1401C57.0244 15.2512 57.1592 15.3735 57.35 15.5291L57.2378 15.6736C57.0693 15.5291 56.8223 15.3401 56.4967 15.0956C56.2048 14.8844 55.969 14.7176 55.7893 14.6176L55.9016 14.4731C56.0812 14.5954 56.2272 14.6621 56.3395 14.6732C56.4518 14.6954 56.5641 14.6621 56.6651 14.5954C56.7662 14.5176 56.8897 14.3953 57.0244 14.2063L59.6743 10.6492C59.8091 10.4602 59.8989 10.3157 59.9326 10.2156C59.9663 10.1156 59.955 10.0155 59.8989 9.92661C59.8427 9.83768 59.7305 9.72652 59.5508 9.58201L59.6631 9.4375C59.8091 9.57089 60.0336 9.74875 60.3368 9.95996C60.5614 10.1267 60.7522 10.2601 60.9319 10.3601L60.5726 16.2517L62.9081 13.1169C63.0428 12.928 63.1439 12.7723 63.1776 12.6501C63.2113 12.5278 63.2 12.4166 63.1439 12.3055C63.0877 12.1943 62.953 12.0609 62.7621 11.9164L62.8744 11.7719C63.0428 11.9164 63.2899 12.1054 63.6155 12.3499C63.9074 12.5611 64.1432 12.7279 64.3229 12.8279L64.2106 12.9724C64.0197 12.8613 63.8737 12.7834 63.7614 12.7723Z" fill="#3C2B4A"/>
<path d="M67.523 17.7857C67.8149 17.5745 68.1181 17.3411 68.4437 17.052C68.7244 17.4744 69.2185 18.1748 69.9259 19.1641C70.6333 20.1423 71.1385 20.8315 71.4417 21.2317C71.0599 21.454 70.7343 21.6541 70.4424 21.8542C70.1954 22.032 69.9932 22.1877 69.8473 22.3099L69.7238 22.1432C70.0831 21.832 70.3301 21.5763 70.4761 21.3873C70.622 21.1983 70.6782 20.9982 70.6669 20.787C70.6557 20.5758 70.521 20.3202 70.3076 20.0089L70.0157 19.6087L65.7601 22.6101C65.558 22.7546 65.4121 22.888 65.3447 22.988C65.2773 23.0881 65.2549 23.2103 65.2998 23.3437C65.3335 23.466 65.4345 23.6439 65.5805 23.8662L65.4345 23.9774C65.2661 23.7106 65.0078 23.3326 64.671 22.8769C64.3117 22.3766 64.0422 22.0209 63.8625 21.7986L64.0085 21.6874C64.1769 21.8986 64.3117 22.0432 64.424 22.121C64.5363 22.1988 64.6485 22.221 64.772 22.1877C64.8956 22.1543 65.064 22.0654 65.2661 21.9209L69.5216 18.9195L69.2297 18.5194C69.0051 18.2081 68.803 18.0191 68.6122 17.9302C68.4213 17.8413 68.2079 17.8302 67.9834 17.908C67.7588 17.9858 67.4332 18.1303 67.0177 18.3637L66.8942 18.197C67.0626 18.1081 67.2647 17.9747 67.523 17.7857Z" fill="#3C2B4A"/>
<path d="M69.6788 33.2149L69.4992 33.2704C69.4318 33.0259 69.342 32.7146 69.2072 32.3367C69.0388 31.8476 68.9041 31.4808 68.803 31.2362L68.9827 31.1806C69.0613 31.3918 69.1511 31.5475 69.2184 31.6253C69.297 31.7031 69.3981 31.7253 69.5104 31.6808C69.6114 31.6475 69.735 31.5697 69.8809 31.4474L71.1273 30.4358L70.4199 28.3571L69.3756 28.3127C69.0388 28.2904 68.7805 28.3127 68.6009 28.3794C68.4212 28.4461 68.3089 28.5461 68.264 28.6906C68.2303 28.8351 68.2528 29.0463 68.3314 29.302L68.1518 29.3576C68.0619 29.0241 67.9496 28.6906 67.8374 28.3571C67.7475 28.1015 67.6689 27.8903 67.5903 27.7235L67.77 27.6679C67.9272 27.9347 68.264 28.0792 68.7581 28.0904L74.7316 28.3571L74.7765 28.4905L70.0157 32.4145C69.7237 32.6924 69.6114 32.9481 69.6788 33.2149ZM73.5751 28.4905L70.6332 28.3683L71.2957 30.3247L73.5751 28.4905Z" fill="#3C2B4A"/>
<path d="M70.4987 41.7188C70.6109 41.6744 70.6671 41.6188 70.6671 41.541C70.6671 41.4965 70.6558 41.4632 70.6334 41.4298C70.6109 41.3965 70.566 41.3298 70.4987 41.2408C70.3302 41.0296 70.2067 40.8073 70.1169 40.585C70.0271 40.3627 69.9821 40.107 69.9821 39.8291C69.9709 39.2066 70.0944 38.673 70.3415 38.2173C70.5997 37.7615 70.959 37.4169 71.4531 37.1723C71.9359 36.9278 72.5198 36.8055 73.2047 36.7944C73.9121 36.7833 74.5296 36.8944 75.0574 37.139C75.5851 37.3836 76.0006 37.717 76.2925 38.1617C76.5844 38.6063 76.7416 39.1065 76.7416 39.6624C76.7416 39.9069 76.7192 40.1292 76.6743 40.3182C76.6293 40.5072 76.562 40.6739 76.4834 40.8184C76.4048 40.9629 76.3037 41.1297 76.169 41.3075C76.1128 41.3853 76.0792 41.452 76.0792 41.4965C76.0792 41.6077 76.27 41.6855 76.6406 41.7188V41.93C76.2476 41.9078 75.5402 41.9078 74.5296 41.93V41.7188C74.8553 41.6632 75.1247 41.5966 75.3381 41.5299C75.5514 41.4632 75.7311 41.3631 75.8883 41.2408C76.1016 41.063 76.2813 40.8295 76.4048 40.5405C76.5283 40.2515 76.5844 39.9625 76.5844 39.6512C76.5732 39.2511 76.4385 38.9065 76.169 38.6063C75.8995 38.3062 75.5177 38.0839 75.0349 37.9171C74.5409 37.7615 73.9794 37.6837 73.3282 37.6948C72.5871 37.7059 71.992 37.7948 71.5204 37.9616C71.0488 38.1283 70.712 38.3729 70.4874 38.6953C70.2629 39.0176 70.1618 39.4289 70.173 39.9291C70.1843 40.296 70.2853 40.6072 70.4762 40.874C70.5548 40.9852 70.6222 41.0519 70.7008 41.0852C70.7681 41.1186 70.8692 41.1297 70.9927 41.1297L71.8797 41.1186C72.138 41.1186 72.3177 41.0852 72.4412 41.0407C72.5534 40.9963 72.6433 40.9074 72.677 40.774C72.7219 40.6517 72.7443 40.4516 72.7443 40.1848H72.924C72.9128 40.4849 72.9015 40.9074 72.9128 41.4743C72.924 41.8967 72.9352 42.2191 72.9577 42.4191H72.778C72.7668 42.2746 72.7331 42.1746 72.6994 42.119C72.6657 42.0634 72.5871 42.019 72.4861 41.9967C72.385 41.9745 72.2166 41.9634 71.9808 41.9745L70.1618 42.0078V41.83C70.2629 41.7855 70.3864 41.7633 70.4987 41.7188Z" fill="#3C2B4A"/>
<path d="M69.1626 51.1785C68.837 51.0784 68.4552 50.9784 68.0173 50.8895C68.1633 50.5004 68.3766 49.8446 68.6798 48.9108C69.0391 47.7992 69.2974 46.9544 69.4546 46.3875L69.6342 46.443C69.5781 46.6542 69.5556 46.8099 69.5556 46.921C69.5668 47.0322 69.6118 47.11 69.7016 47.1767C69.7914 47.2434 69.9486 47.3101 70.162 47.3768L74.5073 48.7329C74.7319 48.7996 74.8891 48.833 75.0014 48.833C75.1137 48.833 75.2035 48.7885 75.2709 48.6996C75.3382 48.6107 75.4056 48.4662 75.4842 48.2661L75.6639 48.3217C75.4617 48.8886 75.1923 49.7223 74.833 50.8339C74.5635 51.6787 74.3726 52.2901 74.2828 52.6569C73.9122 52.5013 73.5754 52.3679 73.261 52.279C73.0364 52.2123 72.8455 52.1567 72.7108 52.1345L72.7782 51.9344C73.1712 52.0122 73.4743 52.0455 73.6764 52.0455C73.8785 52.0455 74.047 51.9788 74.1817 51.8455C74.3164 51.7232 74.4287 51.5009 74.5298 51.2007L74.7544 50.4782C74.8217 50.267 74.8554 50.1113 74.8442 50.0113C74.833 49.9113 74.7993 49.8223 74.7094 49.7556C74.6196 49.6889 74.4736 49.6222 74.2491 49.5555L72.1831 48.9108L72.0034 49.4888C71.9136 49.7779 71.936 50.0002 72.082 50.1558C72.228 50.3114 72.3852 50.4226 72.5648 50.5004C72.7445 50.5782 72.8568 50.6338 72.9017 50.656L72.8343 50.8561C72.5536 50.745 72.2841 50.6449 72.0146 50.5671L71.5992 50.4448C71.3072 50.3559 70.8806 50.2336 70.3416 50.1113L70.409 49.9113C70.4539 49.9224 70.5999 49.9446 70.8469 50.0002C71.0939 50.0446 71.3072 50.0224 71.4757 49.9335C71.6441 49.8446 71.7564 49.6778 71.835 49.4444L72.0146 48.8663L69.9037 48.2105C69.6791 48.1438 69.5219 48.1104 69.4096 48.1104C69.2974 48.1104 69.2075 48.1549 69.1514 48.2438C69.084 48.3328 69.0167 48.4773 68.9493 48.6885L68.7472 49.3221C68.6349 49.6889 68.59 49.978 68.6349 50.1892C68.6686 50.4115 68.7809 50.5893 68.9717 50.745C69.1626 50.8895 69.4546 51.0562 69.8476 51.2341L69.7802 51.4342C69.6454 51.3341 69.4321 51.2674 69.1626 51.1785Z" fill="#3C2B4A"/>
<path d="M65.9622 64.8181C66.0071 64.718 65.9959 64.618 65.951 64.518C65.9061 64.4179 65.7938 64.2956 65.6254 64.1289L62.3242 61.0053C62.1558 60.8496 62.0211 60.7496 61.92 60.7051C61.819 60.6607 61.7179 60.6607 61.6168 60.7051C61.5158 60.7496 61.3923 60.8496 61.2351 61.0053L61.1003 60.883C61.3137 60.694 61.5832 60.4161 61.9312 60.0715C62.2905 59.6936 62.56 59.4045 62.7285 59.2156L62.8632 59.3379C62.7172 59.5046 62.6274 59.638 62.5825 59.7269C62.5376 59.827 62.5488 59.927 62.5937 60.0271C62.6386 60.1271 62.7509 60.2494 62.9193 60.4161L66.2205 63.5397C66.3889 63.6954 66.5236 63.7954 66.6247 63.8399C66.7258 63.8843 66.8268 63.8843 66.9279 63.8399C67.0289 63.7954 67.1524 63.6954 67.3096 63.5397L67.4444 63.662C67.2535 63.8288 66.9728 64.1067 66.6135 64.4846C66.2654 64.8403 66.0071 65.1293 65.8275 65.3405L65.6927 65.2183C65.8275 65.0515 65.9173 64.9181 65.9622 64.8181Z" fill="#3C2B4A"/>
<path d="M56.6091 71.5987C56.6764 71.4986 56.6877 71.3986 56.6652 71.2763C56.6428 71.154 56.5642 70.9984 56.4406 70.7872L53.656 66.1073L53.8357 65.9962L60.1909 69.142L57.7319 65.0068C57.6084 64.8067 57.5073 64.6622 57.4063 64.5844C57.3052 64.5066 57.1929 64.4732 57.0694 64.4844C56.9459 64.4955 56.7775 64.5622 56.5642 64.6733L56.4631 64.5177C56.6652 64.4288 56.9347 64.2732 57.2828 64.0731C57.5972 63.8841 57.833 63.7396 58.0014 63.6173L58.0912 63.7729C57.9116 63.8841 57.788 63.9953 57.7319 64.0953C57.6645 64.1953 57.6533 64.2954 57.6758 64.4177C57.6982 64.5399 57.7768 64.6956 57.9003 64.9068L60.1685 68.7196C60.2807 68.9197 60.3818 69.0531 60.4716 69.1198C60.5615 69.1865 60.6513 69.2198 60.7636 69.1976C60.8646 69.1754 61.0218 69.1198 61.2127 69.0197L61.3025 69.1754C61.1229 69.2643 60.8758 69.3977 60.5502 69.5866C60.3144 69.72 60.1123 69.8534 59.9439 69.9646L54.6104 67.3301L56.6091 70.6871C56.7326 70.8872 56.8336 71.0317 56.9347 71.1096C57.0245 71.1874 57.1368 71.2207 57.2715 71.2096C57.4063 71.1985 57.5747 71.1318 57.788 71.0206L57.8779 71.1762C57.6758 71.2652 57.4063 71.4208 57.0582 71.6209C56.7438 71.8099 56.508 71.9544 56.3396 72.0767L56.2498 71.921C56.4182 71.7987 56.5417 71.6876 56.6091 71.5987Z" fill="#3C2B4A"/>
<path d="M50.4336 73.055C50.5122 73.3996 50.6133 73.7775 50.748 74.1777C50.2427 74.2666 49.4006 74.4445 48.2104 74.689C47.0202 74.9447 46.1893 75.1337 45.6952 75.2559C45.6391 74.8224 45.583 74.4445 45.5044 74.0999C45.437 73.7997 45.3808 73.5552 45.3135 73.3773L45.5156 73.3329C45.6616 73.7886 45.7963 74.111 45.9198 74.3222C46.0433 74.5334 46.2005 74.6668 46.4026 74.7335C46.6047 74.8002 46.8967 74.7891 47.2672 74.7113L47.75 74.6112L46.6497 69.5534C46.5935 69.3088 46.5374 69.131 46.4588 69.0309C46.3802 68.9309 46.2903 68.8642 46.1556 68.8531C46.0209 68.8308 45.8188 68.8531 45.5493 68.8975L45.5156 68.7197C45.83 68.6752 46.2791 68.5863 46.8405 68.464C47.4356 68.3306 47.8848 68.2306 48.1655 68.1528L48.1992 68.3306C47.9297 68.3973 47.75 68.464 47.6377 68.5307C47.5255 68.5974 47.4581 68.6975 47.4356 68.8197C47.4132 68.942 47.4244 69.131 47.4806 69.3755L48.5809 74.4334L49.0638 74.3333C49.4343 74.2555 49.7038 74.1443 49.861 73.9998C50.0182 73.8553 50.108 73.6663 50.1305 73.4329C50.1529 73.1995 50.1417 72.8438 50.0855 72.3769L50.2876 72.3324C50.3213 72.5103 50.3662 72.7548 50.4336 73.055Z" fill="#3C2B4A"/>
<path d="M35.5331 69.9313C35.5668 69.5867 35.5781 69.1976 35.5781 68.7641C35.9935 68.8197 36.6897 68.8864 37.6778 68.9753C38.8455 69.0753 39.7326 69.1532 40.3389 69.1865L40.3277 69.3644C40.1031 69.3533 39.9459 69.3644 39.8448 69.3977C39.7438 69.4311 39.6652 69.4866 39.6203 69.5867C39.5754 69.6867 39.5417 69.8535 39.5192 70.0758L39.115 74.5778C39.0925 74.8001 39.1038 74.9669 39.1262 75.078C39.1487 75.1892 39.216 75.267 39.3171 75.3115C39.4182 75.3559 39.5754 75.4004 39.7887 75.4226L39.7775 75.6005C39.1824 75.5338 38.2953 75.4449 37.1276 75.3448C36.2293 75.267 35.5893 75.2225 35.2075 75.2003C35.2861 74.8113 35.3423 74.4555 35.3647 74.1332C35.3872 73.8997 35.3984 73.7108 35.3872 73.5662L35.6005 73.5885C35.6117 73.9887 35.6342 74.2777 35.6903 74.4778C35.7353 74.6779 35.8363 74.8224 35.9935 74.9224C36.1395 75.0225 36.3865 75.0892 36.7009 75.1114L37.4644 75.1781C37.689 75.2003 37.8462 75.1892 37.9472 75.167C38.0483 75.1447 38.1269 75.078 38.1718 74.978C38.2167 74.8779 38.2504 74.7112 38.2729 74.4889L38.4637 72.3546L37.8574 72.299C37.5543 72.2768 37.3409 72.3435 37.2174 72.5213C37.1051 72.6992 37.0153 72.8771 36.9816 73.066C36.9367 73.255 36.9142 73.3773 36.903 73.4329L36.6897 73.4106C36.7346 73.1105 36.7683 72.8326 36.802 72.5547L36.8356 72.1212C36.8581 71.8099 36.8805 71.3875 36.903 70.8317L37.1163 70.8539C37.1163 70.8984 37.1276 71.0429 37.1276 71.2986C37.1388 71.5542 37.1949 71.7543 37.3297 71.8877C37.4532 72.0322 37.6441 72.11 37.8911 72.1323L38.4974 72.1879L38.6883 70.0091C38.7108 69.7868 38.6995 69.62 38.6771 69.5089C38.6546 69.4088 38.5873 69.331 38.4862 69.2866C38.3852 69.2421 38.228 69.2087 38.0146 69.1865L37.3409 69.1309C36.9591 69.0976 36.6672 69.1198 36.4539 69.2087C36.2518 69.2866 36.0946 69.4422 35.9823 69.6534C35.87 69.8646 35.7802 70.187 35.6903 70.6094L35.477 70.5871C35.477 70.4204 35.4995 70.1981 35.5331 69.9313Z" fill="#3C2B4A"/>
<path d="M26.6969 65.8073C26.8653 65.774 27.0562 65.8073 27.2583 65.8962C27.4941 65.9963 27.6513 66.1408 27.7412 66.3298C27.831 66.5298 27.8422 66.8077 27.7861 67.1746L27.6177 68.0861C27.5615 68.4085 27.5278 68.653 27.5166 68.842C27.5054 69.0199 27.5503 69.1866 27.6289 69.3311C27.7075 69.4756 27.8534 69.5868 28.0668 69.6757L28.8752 70.0092L29.6949 68.075C29.7847 67.8638 29.8296 67.7082 29.8409 67.597C29.8521 67.4858 29.8072 67.3969 29.7286 67.3191C29.65 67.2413 29.5152 67.1635 29.3131 67.0745L29.3805 66.9078C29.6388 67.0301 29.9868 67.1857 30.4472 67.3747C30.93 67.5748 31.3006 67.7193 31.5476 67.7971L31.4802 67.9638C31.2669 67.886 31.1097 67.8527 31.0086 67.8415C30.8963 67.8415 30.8065 67.8749 30.7391 67.9638C30.6605 68.0416 30.5819 68.1861 30.4921 68.3973L28.7293 72.5659C28.6394 72.7771 28.5945 72.9327 28.5833 73.0439C28.5721 73.155 28.617 73.244 28.6956 73.3218C28.7742 73.3996 28.9089 73.4774 29.111 73.5775L29.0437 73.7442C28.8079 73.633 28.471 73.4774 28.0219 73.2884C27.7973 73.1995 27.5615 73.0995 27.292 72.9883C27.0225 72.8771 26.8429 72.8104 26.7418 72.766C26.3039 72.577 25.9559 72.3658 25.6976 72.1101C25.4393 71.8545 25.2934 71.5877 25.226 71.2986C25.1586 71.0096 25.1923 70.7317 25.3158 70.4538C25.4057 70.2315 25.5516 70.0314 25.7537 69.8536C25.9559 69.6757 26.2141 69.5423 26.5285 69.4756C26.8429 69.4089 27.2247 69.42 27.6401 69.5201L27.5391 69.4645C27.3033 69.32 27.1236 69.1755 27.0113 69.0199C26.899 68.8753 26.8204 68.7086 26.798 68.5307C26.7643 68.3529 26.7755 68.1306 26.8204 67.8638L26.9776 66.9189C27.0113 66.7299 27.0338 66.5854 27.0338 66.4743C27.0338 66.3631 27.0225 66.2742 26.9889 66.2075C26.9552 66.1408 26.899 66.0852 26.8204 66.063C26.7306 66.0185 26.6408 66.0185 26.5622 66.0407C26.4836 66.063 26.3713 66.1186 26.2253 66.1964L26.1355 66.0519C26.3376 65.9296 26.5285 65.8407 26.6969 65.8073ZM27.2583 69.7646C26.9889 69.798 26.7755 69.898 26.6071 70.0648C26.4387 70.2315 26.2927 70.4538 26.1692 70.7428C25.9783 71.1986 25.9334 71.5988 26.0569 71.9211C26.1804 72.2435 26.4836 72.5103 26.9889 72.7215C27.1685 72.7993 27.3033 72.8327 27.4155 72.8216C27.5166 72.8216 27.6064 72.7771 27.685 72.6882C27.7636 72.5992 27.8422 72.4547 27.9208 72.2546L28.7966 70.187L28.224 69.9536C27.8534 69.798 27.5278 69.7313 27.2583 69.7646Z" fill="#3C2B4A"/>
<path d="M17.9384 67.3191C18.0394 67.3524 18.1405 67.3302 18.2303 67.2746C18.3201 67.219 18.4437 67.0967 18.5896 66.9189L21.4079 63.3617C21.5539 63.1839 21.6437 63.0394 21.6774 62.9393C21.7111 62.8393 21.6999 62.7392 21.6437 62.6503C21.5876 62.5614 21.4753 62.4391 21.3069 62.2946L21.4192 62.1501C21.6325 62.3391 21.9244 62.5836 22.3174 62.8837C22.7329 63.2061 23.0473 63.4396 23.2606 63.5841L23.1483 63.7286C22.9687 63.5952 22.8227 63.5174 22.7217 63.4951C22.6206 63.4618 22.5196 63.4729 22.4297 63.5396C22.3399 63.5952 22.2164 63.7175 22.0704 63.8953L19.2521 67.4525C19.1061 67.6303 19.0163 67.7748 18.9826 67.8749C18.9489 67.9749 18.9602 68.075 19.0163 68.1639C19.0724 68.2528 19.1847 68.3751 19.3532 68.5196L19.2409 68.6641C19.05 68.4974 18.7468 68.2528 18.3314 67.9193C17.9384 67.6192 17.624 67.3858 17.3994 67.2301L17.5117 67.0856C17.7026 67.2079 17.8373 67.2857 17.9384 67.3191Z" fill="#3C2B4A"/>
<path d="M10.6852 59.4045C10.6403 58.9043 10.7526 58.404 11.0108 57.926C11.2803 57.4369 11.6845 57.0034 12.2459 56.5921C12.7961 56.203 13.3463 55.9474 13.919 55.8473C14.4916 55.7473 15.0193 55.7806 15.5134 55.9696C16.0074 56.1586 16.4229 56.4809 16.7485 56.9367C17.0966 57.4036 17.2875 57.8927 17.3324 58.3929C17.3773 58.8931 17.265 59.3934 17.0068 59.8714C16.7373 60.3605 16.3331 60.794 15.7716 61.2053C15.2215 61.5943 14.6713 61.85 14.0986 61.9501C13.5372 62.0501 12.9982 62.0168 12.5042 61.8278C12.0101 61.6388 11.5947 61.3164 11.2691 60.8718C10.921 60.3938 10.7301 59.9047 10.6852 59.4045ZM12.3695 61.3831C12.7624 61.461 13.2116 61.4276 13.7056 61.272C14.1997 61.1164 14.6937 60.8607 15.2102 60.4827C15.7267 60.1159 16.131 59.7157 16.4117 59.2933C16.7036 58.8709 16.8608 58.4485 16.8833 58.0483C16.9169 57.6481 16.8159 57.2924 16.6025 56.9923C16.3668 56.681 16.0636 56.4809 15.6594 56.4031C15.2664 56.3253 14.8172 56.3587 14.3232 56.5143C13.8291 56.6699 13.3351 56.9256 12.8186 57.2924C12.3021 57.6593 11.8979 58.0594 11.6172 58.493C11.3252 58.9154 11.168 59.3267 11.1343 59.738C11.1006 60.1381 11.2017 60.4939 11.415 60.794C11.6508 61.1052 11.9652 61.3053 12.3695 61.3831Z" fill="#3C2B4A"/>
<path d="M11.5496 46.0206C11.6844 46.1207 11.7854 46.2874 11.8528 46.5097C11.9314 46.7432 11.9202 46.9655 11.8303 47.1545C11.7405 47.3546 11.5272 47.5435 11.2015 47.7325L10.3819 48.1883C10.1012 48.355 9.88782 48.4884 9.74185 48.5996C9.59589 48.7107 9.49483 48.8441 9.43869 48.9997C9.38255 49.1554 9.38255 49.3332 9.44992 49.5556L9.70817 50.3893L11.7293 49.7668C11.9538 49.7001 12.0998 49.6334 12.1896 49.5667C12.2795 49.5 12.3244 49.411 12.3356 49.311C12.3468 49.2109 12.3132 49.0442 12.257 48.833L12.4367 48.7774C12.504 49.0442 12.6051 49.4222 12.7623 49.889C12.9195 50.3893 13.043 50.7561 13.1328 50.9895L12.9532 51.0451C12.8746 50.8339 12.8072 50.6894 12.7398 50.6116C12.6725 50.5338 12.5826 50.4782 12.4703 50.4782C12.3581 50.4782 12.1896 50.5004 11.9763 50.5782L7.61969 51.9122C7.39512 51.9789 7.24915 52.0456 7.15933 52.1122C7.0695 52.1789 7.02459 52.2679 7.01336 52.3679C7.00213 52.4791 7.03582 52.6347 7.09196 52.8459L6.9123 52.9015C6.85616 52.6569 6.75511 52.3012 6.60914 51.8343C6.54177 51.612 6.45194 51.3564 6.36211 51.0896C6.27229 50.8228 6.20492 50.6338 6.17123 50.5338C6.02526 50.078 5.98035 49.6778 6.01403 49.3221C6.04772 48.9664 6.16 48.6774 6.33966 48.4439C6.51931 48.2105 6.75511 48.0549 7.04704 47.9659C7.27161 47.8993 7.51864 47.877 7.78812 47.9104C8.0576 47.9437 8.31585 48.0549 8.58533 48.255C8.85481 48.4551 9.07938 48.7441 9.27026 49.1331L9.25903 49.022C9.22535 48.7441 9.21412 48.5218 9.25903 48.3328C9.30395 48.1438 9.38255 47.9882 9.49483 47.8548C9.61834 47.7214 9.79799 47.5769 10.0338 47.4435L10.8647 46.9544C11.0331 46.8655 11.1679 46.7765 11.2465 46.7098C11.3251 46.6431 11.3924 46.5764 11.4261 46.5097C11.4598 46.443 11.4598 46.3652 11.4373 46.2874C11.4037 46.1874 11.3587 46.1207 11.2914 46.0762C11.224 46.0317 11.1117 45.9762 10.9545 45.9206L11.0107 45.7538C11.2352 45.8317 11.4261 45.9206 11.5496 46.0206ZM8.86604 48.9997C8.67516 48.8219 8.45059 48.7218 8.2148 48.6996C7.979 48.6774 7.70952 48.7107 7.40635 48.8108C6.92353 48.9553 6.59791 49.1887 6.41826 49.4889C6.2386 49.789 6.2386 50.2003 6.3958 50.7005C6.45194 50.8784 6.51931 51.0118 6.58668 51.0896C6.65405 51.1674 6.75511 51.2118 6.86739 51.2118C6.97967 51.2118 7.1481 51.1785 7.35021 51.1229L9.50606 50.456L9.3264 49.8668C9.21412 49.4666 9.05692 49.1776 8.86604 48.9997Z" fill="#3C2B4A"/>
<path d="M10.685 35.4715C11.1117 35.2825 11.3699 34.9268 11.4822 34.3932C11.5159 34.1931 11.5159 33.993 11.4598 33.8041C11.4036 33.6151 11.3026 33.4484 11.1454 33.3038C10.9882 33.1593 10.7748 33.0593 10.4941 33.0148C10.2583 32.9704 10.045 32.9926 9.84288 33.0704C9.64077 33.1482 9.43865 33.2705 9.24777 33.4372C9.05689 33.604 8.83232 33.8263 8.5853 34.1042C8.30459 34.4155 8.05756 34.6711 7.84423 34.849C7.63089 35.038 7.39509 35.1713 7.13684 35.2714C6.87859 35.3714 6.58665 35.3826 6.26103 35.327C5.92417 35.2603 5.64346 35.138 5.44135 34.9379C5.23924 34.7378 5.09327 34.5044 5.0259 34.2265C4.95853 33.9486 4.95853 33.6596 5.01468 33.3483C5.04836 33.1593 5.09327 33.0148 5.14942 32.8814C5.20556 32.748 5.2617 32.648 5.32907 32.5702C5.39644 32.4924 5.46381 32.4034 5.55364 32.3145C5.66592 32.1922 5.72206 32.1033 5.74452 32.0366C5.75575 31.981 5.73329 31.9366 5.67715 31.8921C5.62101 31.8476 5.51995 31.8143 5.38521 31.7698L5.4189 31.5697C5.76698 31.6587 6.37331 31.7921 7.26035 31.9588L7.22667 32.1589C6.91227 32.1255 6.62033 32.1367 6.3284 32.2033C6.04769 32.2589 5.80066 32.3812 5.59855 32.5702C5.39644 32.748 5.2617 33.0037 5.20556 33.315C5.16064 33.5262 5.17187 33.7151 5.22801 33.9041C5.28416 34.0931 5.38521 34.2376 5.51995 34.3599C5.66592 34.4821 5.83435 34.56 6.03646 34.6044C6.36208 34.66 6.64279 34.6155 6.87859 34.4599C7.11438 34.3043 7.33895 34.1042 7.55229 33.8708C7.76563 33.6373 7.90037 33.4817 7.97897 33.4039C8.29336 33.0704 8.55161 32.8147 8.76495 32.6258C8.97829 32.4368 9.21409 32.3034 9.47234 32.2145C9.73059 32.1255 10.0113 32.1144 10.3145 32.17C10.685 32.2367 10.9882 32.3812 11.2127 32.5924C11.4373 32.8147 11.5833 33.0704 11.6619 33.3817C11.7405 33.6929 11.7405 34.0264 11.6731 34.3821C11.617 34.6711 11.5496 34.8934 11.4485 35.0713C11.3587 35.2492 11.2352 35.4048 11.1005 35.5493C10.9882 35.6716 10.932 35.7605 10.9096 35.8272C10.8983 35.8828 10.9208 35.9272 10.9769 35.9717C11.0331 36.0162 11.1341 36.0606 11.2689 36.094L11.2352 36.2941C10.9096 36.2051 10.191 36.0606 9.07935 35.8605L9.11303 35.6605C9.74182 35.716 10.2583 35.6605 10.685 35.4715Z" fill="#3C2B4A"/>
<path d="M8.46171 26.1006C8.14732 25.9339 7.78801 25.7782 7.38379 25.6226C7.63081 25.1891 8.04626 24.4332 8.60768 23.3549C9.1691 22.2878 9.56209 21.5319 9.77543 21.0761C10.146 21.3096 10.4828 21.5097 10.786 21.6653C11.0555 21.8098 11.2913 21.9098 11.4709 21.9877L11.3699 22.1766C10.9207 21.9988 10.5839 21.8876 10.3481 21.8543C10.1123 21.8098 9.89894 21.8543 9.71929 21.9654C9.53964 22.0766 9.35998 22.2989 9.19156 22.6324L8.96699 23.077L13.6043 25.467C13.8289 25.5893 14.0085 25.6449 14.132 25.656C14.2556 25.6671 14.3678 25.6337 14.4689 25.5448C14.5699 25.4559 14.6822 25.2891 14.817 25.0557L14.9854 25.1446C14.817 25.4225 14.6036 25.8116 14.3342 26.3229C14.0534 26.8565 13.8513 27.2678 13.7278 27.5235L13.5594 27.4345C13.6717 27.19 13.7503 27.001 13.7615 26.8787C13.784 26.7453 13.7503 26.6342 13.6604 26.5341C13.5706 26.4341 13.4247 26.3341 13.2001 26.2118L8.56277 23.8107L8.32697 24.2442C8.14732 24.5777 8.06872 24.8445 8.07995 25.0557C8.09118 25.2669 8.181 25.4559 8.34943 25.6226C8.51785 25.7894 8.79856 26.0117 9.20279 26.2674L9.10173 26.4563C8.95576 26.3674 8.73119 26.2451 8.46171 26.1006Z" fill="#3C2B4A"/>
<path d="M16.3888 13.3283C16.5797 13.1393 16.7369 12.9614 16.8491 12.828L16.9839 12.9614C16.9165 13.0615 16.8828 13.206 16.8941 13.3727C16.9053 13.5395 16.9502 13.7729 17.04 14.0508L18.0618 17.0633L19.252 18.2305C19.4204 18.3861 19.544 18.4972 19.645 18.5417C19.7461 18.5862 19.8471 18.5862 19.9482 18.5417C20.0492 18.4972 20.1727 18.3972 20.3412 18.2527L20.4759 18.3861C20.2626 18.5751 19.9819 18.8418 19.6338 19.1864C19.2632 19.5533 18.9938 19.8423 18.8253 20.0313L18.6906 19.8979C18.8366 19.7311 18.9376 19.6088 18.9825 19.5088C19.0274 19.4088 19.0274 19.3087 18.9713 19.2087C18.9264 19.1086 18.8141 18.9752 18.6569 18.8196L17.6688 17.8525L13.9185 16.7631C13.694 16.6964 13.5255 16.6742 13.4133 16.6853C13.301 16.6964 13.2224 16.7298 13.1662 16.7854L13.0315 16.652C13.2111 16.4963 13.4133 16.3185 13.6154 16.1073C14.0308 15.6849 14.334 15.3847 14.5024 15.1846L14.6372 15.318C14.334 15.6182 14.2666 15.8516 14.435 16.0184C14.5024 16.085 14.5922 16.1295 14.727 16.174L17.8822 17.1411L17.0513 14.6844C16.9277 14.3287 16.8042 14.0842 16.6695 13.9619C16.546 13.8396 16.4112 13.8062 16.2653 13.8507C16.1193 13.8952 15.9509 14.0063 15.7488 14.1953L15.614 14.0619C15.8835 13.8174 16.1305 13.5728 16.3888 13.3283Z" fill="#3C2B4A"/>
<path d="M23.1823 8.84845C23.1149 8.92626 23.0812 9.02631 23.1037 9.13747C23.1262 9.24863 23.1823 9.40426 23.2946 9.60435L25.4617 13.5839C25.5739 13.784 25.6638 13.9174 25.7536 13.9952C25.8322 14.073 25.9332 14.0952 26.0343 14.0841C26.1354 14.073 26.2926 14.0063 26.4834 13.9063L27.0785 13.5839C27.4154 13.406 27.6512 13.2171 27.7747 13.0281C27.8982 12.8391 27.9431 12.6279 27.9094 12.3723C27.8758 12.1166 27.7747 11.7942 27.595 11.3718L27.7859 11.2718C27.8645 11.4496 27.9768 11.6719 28.1228 11.9387C28.2912 12.2389 28.4933 12.5723 28.7403 12.9392C28.3698 13.117 27.741 13.4394 26.8764 13.9063C25.8434 14.4621 25.0574 14.8845 24.5409 15.1846L24.4511 15.029C24.642 14.9178 24.7767 14.8178 24.8441 14.74C24.9115 14.6622 24.9451 14.5621 24.9227 14.451C24.9002 14.3398 24.8441 14.1842 24.7318 13.9841L22.5423 10.0045C22.43 9.80444 22.3402 9.67104 22.2503 9.59323C22.1717 9.51542 22.0707 9.49319 21.9696 9.5043C21.8573 9.51542 21.7114 9.571 21.5093 9.67104L21.4307 9.5043C21.6665 9.40426 22.0145 9.2264 22.4749 8.97073C22.9128 8.73729 23.2497 8.54832 23.4855 8.40381L23.5753 8.55943C23.3844 8.67059 23.2609 8.77064 23.1823 8.84845Z" fill="#3C2B4A"/>
<path d="M36.8586 9.55984C36.9259 9.89332 37.027 10.2713 37.1505 10.6937C36.7351 10.7604 36.0501 10.8826 35.0845 11.0716C33.928 11.2939 33.0634 11.4718 32.4683 11.6052L32.4346 11.4273C32.6479 11.3718 32.8051 11.3273 32.8949 11.2606C32.9848 11.205 33.0409 11.1161 33.0521 11.016C33.0634 10.9049 33.0521 10.7381 33.0072 10.5158L32.1314 6.0805C32.0865 5.85818 32.0416 5.70255 31.9742 5.60251C31.9069 5.50246 31.8395 5.44688 31.7272 5.43577C31.6261 5.41353 31.4577 5.42465 31.2444 5.458L31.2107 5.28014C31.8058 5.1801 32.6816 5.02447 33.8269 4.80215C34.7139 4.62429 35.3427 4.50201 35.702 4.41309C35.7357 4.81327 35.7919 5.16898 35.848 5.48023C35.8929 5.71367 35.9378 5.89153 35.9828 6.02492L35.7806 6.06938C35.6571 5.69144 35.5448 5.41353 35.4438 5.23568C35.3427 5.05782 35.1968 4.94666 35.0283 4.89108C34.8487 4.8355 34.6129 4.8355 34.2873 4.90219L33.535 5.0467C33.3216 5.09117 33.1644 5.13563 33.0746 5.19121C32.9848 5.24679 32.9286 5.32461 32.9062 5.43577C32.8949 5.54693 32.9062 5.71367 32.9511 5.93599L33.3665 8.04805L33.9616 7.92577C34.2648 7.87019 34.4445 7.7368 34.5118 7.53671C34.5792 7.33662 34.6017 7.14764 34.5904 6.95867C34.5792 6.7697 34.568 6.64742 34.568 6.59184L34.7701 6.54737C34.8038 6.84751 34.8487 7.12541 34.9048 7.3922L34.9947 7.81461C35.0508 8.11474 35.1519 8.53715 35.2978 9.07073L35.0957 9.11519C35.0845 9.07073 35.0396 8.93733 34.961 8.69278C34.8824 8.44823 34.7701 8.28149 34.6017 8.18144C34.4332 8.0814 34.2424 8.05916 33.9953 8.10363L33.4002 8.21479L33.8269 10.3602C33.8718 10.5825 33.9167 10.7381 33.9729 10.8382C34.029 10.9271 34.1076 10.9827 34.2199 11.0049C34.321 11.016 34.4894 11.0049 34.7027 10.9605L35.3652 10.8271C35.7357 10.7493 36.0164 10.6492 36.1961 10.5158C36.3757 10.3824 36.4768 10.1935 36.5217 9.96001C36.5666 9.72658 36.5666 9.39309 36.5329 8.95957L36.7351 8.9151C36.7687 9.08184 36.8024 9.29305 36.8586 9.55984Z" fill="#3C2B4A"/>
<path d="M29.2906 52.0122C28.7741 51.323 28.325 50.5671 27.932 49.7334C27.539 48.8997 27.2246 48.0549 26.9888 47.1878C26.4723 43.375 26.4611 39.6734 26.9439 36.0829C27.4267 32.4924 28.2127 28.9574 29.2906 25.467C29.4703 25.0779 29.8633 24.889 30.4696 24.889C31.0759 24.889 31.671 25.0224 32.2774 25.2891C32.8837 25.5559 33.3778 25.9116 33.7707 26.3563C34.1637 26.8009 34.2536 27.2678 34.0402 27.7458C33.7034 28.4572 33.3778 29.4243 33.0521 30.6249C32.7265 31.8365 32.4009 33.1704 32.1089 34.6267C31.8058 36.0829 31.5475 37.6169 31.323 39.2065C31.0984 40.7961 30.93 42.3301 30.8289 43.7863C30.7279 45.2425 30.7054 46.5653 30.7615 47.7436C30.8177 48.9219 30.9973 49.8557 31.3005 50.5338C32.7153 48.6552 34.0065 46.7098 35.1855 44.6978C36.3645 42.6858 37.4649 40.6516 38.4979 38.5729C39.5309 36.5053 40.519 34.4154 41.451 32.2923C42.3829 30.1802 43.3036 28.0904 44.2019 26.0339C44.651 24.989 45.1002 23.8885 45.5381 22.7324C45.976 21.5653 46.5486 20.5759 47.2785 19.7422C47.5816 19.4754 47.8174 19.3865 47.9746 19.4754C48.1431 19.5644 48.2554 19.7311 48.3115 19.9868C48.3676 20.2424 48.4013 20.5092 48.4013 20.7871C48.4013 21.065 48.4013 21.2873 48.4013 21.4319C48.188 22.7991 48.0083 24.1553 47.8624 25.5003C47.7164 26.8454 47.3908 28.1349 46.9192 29.391C46.1332 31.3585 45.336 33.3038 44.5051 35.2492C43.6742 37.1834 42.7871 39.0953 41.8439 40.9739C40.9008 42.8526 39.8678 44.6756 38.7786 46.4431C37.6782 48.2216 36.488 49.9113 35.1855 51.512C34.1637 52.7903 33.142 53.4684 32.1426 53.5462C31.0984 53.6352 30.1664 53.1127 29.2906 52.0122Z" fill="#3C2B4A" stroke="white" stroke-miterlimit="10"/>
<path d="M47.885 46.9656C47.2786 46.1319 46.6835 45.2871 46.0996 44.42C45.5158 43.553 45.2238 42.6081 45.2238 41.5632C45.2238 40.4071 45.5607 39.3066 46.2344 38.2728C46.9081 37.2501 47.6828 36.4164 48.5587 35.7939C48.918 35.5605 49.2885 35.3604 49.659 35.2159C50.0296 35.0714 50.4338 35.0825 50.8605 35.2604C51.0401 35.3493 51.231 35.416 51.4219 35.4604C51.6128 35.5049 51.7924 35.5605 51.9384 35.6161C52.0844 35.6716 52.2528 35.7606 52.4324 35.8829C52.6121 36.0051 52.7019 36.1608 52.7019 36.372C52.7019 37.2057 52.7244 37.8837 52.7693 38.4062C52.8142 38.9287 52.8816 39.3733 52.9714 39.7513C53.0612 40.1292 53.1511 40.4516 53.2409 40.7295C53.3307 41.0185 53.4205 41.3186 53.5104 41.641C53.5665 41.9411 53.5553 42.1968 53.4655 42.3969C53.3756 42.6081 53.1511 42.6303 52.7918 42.4858C52.1293 42.2524 51.6352 41.7744 51.3208 41.0518C51.0064 40.3293 50.7706 39.6846 50.6247 39.0843C50.591 38.962 50.5236 38.7619 50.4001 38.4618C50.2766 38.1616 50.2092 37.9504 50.1755 37.8393C49.9398 37.7837 49.6478 37.8615 49.3222 38.0838C48.9966 38.3062 48.6934 38.6174 48.4464 38.9954C48.1881 39.3844 48.0197 39.8291 47.9523 40.3404C47.8737 40.8517 47.9748 41.352 48.2443 41.8633C48.3678 42.0412 48.5362 42.2635 48.7608 42.508C48.9853 42.7637 49.2099 43.0194 49.4345 43.2862C49.659 43.553 49.8836 43.8197 50.1082 44.0643C50.3327 44.3088 50.5236 44.5201 50.6696 44.6646C50.8492 44.8424 50.9728 44.9425 51.0289 44.9536C51.085 44.9647 51.2422 44.9314 51.478 44.8424C51.7812 44.6979 52.2416 44.4978 52.8591 44.2644C53.4767 44.0309 54.1279 43.7864 54.8016 43.553C55.4753 43.3195 56.1266 43.1194 56.7441 42.9527C57.3617 42.7859 57.8333 42.7081 58.1701 42.7081C58.3835 42.7081 58.5295 42.7859 58.6193 42.9305C58.7091 43.0194 58.6979 43.1417 58.5744 43.2862C58.4509 43.4307 58.2937 43.5863 58.1028 43.7308C57.9119 43.8753 57.6986 44.0087 57.4964 44.131C57.2831 44.2533 57.1484 44.32 57.0922 44.3533C56.5757 44.6535 55.9357 44.9869 55.1497 45.3649C54.3637 45.7317 53.69 46.0985 53.1174 46.4543C53.0612 46.5098 52.949 46.5765 52.7805 46.6321C52.6121 46.6877 52.4886 46.7544 52.3988 46.81C52.7581 47.6103 53.0163 48.3106 53.1623 48.8887C53.3083 49.4667 53.3644 50.0225 53.3195 50.5672C53.2746 51.1008 53.1623 51.6455 52.9826 52.2013C52.803 52.7571 52.556 53.3907 52.264 54.1021C51.8373 54.7913 51.4107 55.4472 50.9728 56.0697C50.5349 56.6922 50.052 57.2591 49.5018 57.7704C48.9629 58.2818 48.3678 58.682 47.739 58.971C47.1102 59.2711 46.414 59.4156 45.6617 59.4156C45.2351 59.4156 44.8308 59.36 44.4378 59.26C44.0449 59.1599 43.7192 58.9376 43.4497 58.6153C42.7536 57.8705 42.3718 57.059 42.282 56.1808C42.1922 55.3027 42.2708 54.4356 42.5066 53.5686C42.6862 53.035 42.9108 52.5459 43.1803 52.0901C43.8427 50.9563 44.5726 50.0003 45.3698 49.211C46.1782 48.4329 47.0091 47.677 47.885 46.9656ZM49.4232 48.9776C49.0864 49.3111 48.6373 49.778 48.0646 50.3894C47.492 51.0007 46.9642 51.6677 46.459 52.3791C45.9649 53.0906 45.5607 53.802 45.2463 54.5023C44.9319 55.2026 44.8533 55.8029 44.9993 56.3142C45.6056 56.0474 46.2232 55.6028 46.8519 54.9914C47.4807 54.38 48.0422 53.7131 48.525 52.9794C49.0078 52.2457 49.3446 51.5232 49.5355 50.8118C49.7264 50.0892 49.6927 49.4778 49.4232 48.9776Z" fill="#3C2B4A" stroke="white" stroke-miterlimit="10"/>
<path d="M40.5636 65.0625C26.5169 65.0625 15.0864 53.7463 15.0864 39.8401C15.0864 25.9338 26.5169 14.6176 40.5636 14.6176C54.6103 14.6176 66.0408 25.9338 66.0408 39.8401C66.0408 53.7463 54.6103 65.0625 40.5636 65.0625ZM40.5636 15.7293C27.1345 15.7293 16.2093 26.5452 16.2093 39.8401C16.2093 53.1349 27.1345 63.9509 40.5636 63.9509C53.9927 63.9509 64.9179 53.1349 64.9179 39.8401C64.9179 26.5452 53.9927 15.7293 40.5636 15.7293Z" fill="#3C2B4A"/>
</g>
</svg>
