<svg width="130" height="34" viewBox="0 0 130 34" fill="none" xmlns="http://www.w3.org/2000/svg">
<path d="M28.1776 33.4957H7.08235C3.61568 33.4957 0.806152 30.7142 0.806152 27.2822V6.39789C0.806152 2.96589 3.61568 0.184448 7.08235 0.184448H28.1776C31.6443 0.184448 34.4538 2.96589 34.4538 6.39789V27.2822C34.4538 30.7142 31.6443 33.4957 28.1776 33.4957Z" fill="#3C2B4A"/>
<path d="M23.6918 17.1465C24.2918 17.8914 24.5966 18.7588 24.5966 19.7394C24.5966 21.182 24.1109 22.3134 23.1394 23.1148C22.168 23.9162 20.7775 24.3311 18.968 24.3311H11.0632V7.50107H18.7775C20.5109 7.50107 21.8442 7.87821 22.7871 8.62307C23.7299 9.36793 24.2061 10.4334 24.2061 11.8099C24.2061 12.8282 23.9299 13.6674 23.3871 14.3462C22.8442 15.0251 22.1299 15.4588 21.2442 15.6662C22.2823 15.9114 23.0918 16.4017 23.6918 17.1465ZM15.168 14.3839H17.8632C19.2918 14.3839 20.0061 13.7805 20.0061 12.5737C20.0061 11.3668 19.2728 10.7634 17.8156 10.7634H15.168V14.3839ZM20.387 19.1737C20.387 18.5702 20.1871 18.0988 19.7871 17.7594C19.3871 17.42 18.8156 17.2502 18.0823 17.2502H15.1775V21.0311H18.1109C19.6251 21.0217 20.387 20.4088 20.387 19.1737Z" fill="white"/>
<path d="M53.9492 24.3311L50.273 17.9762H49.3396V24.3311H45.2253V7.50107H52.2444C53.5873 7.50107 54.7301 7.72736 55.6539 8.18936C56.5873 8.65136 57.2825 9.28307 57.7492 10.0845C58.2158 10.8859 58.4444 11.8005 58.4444 12.8377C58.4444 14.0634 58.1016 15.1005 57.4254 15.9585C56.7396 16.8165 55.7587 17.4011 54.4539 17.7217L58.492 24.3405H53.9492V24.3311ZM49.3396 15.1948H51.8825C52.7015 15.1948 53.3016 15.0157 53.6825 14.6574C54.0635 14.2991 54.2634 13.7711 54.2634 13.0734C54.2634 12.4039 54.0635 11.8854 53.673 11.4988C53.2825 11.1216 52.6825 10.9237 51.8825 10.9237H49.3396V15.1948Z" fill="#3C2B4A"/>
<path d="M77.0542 21.2669H70.6827L69.6256 24.3406H65.3018L71.5304 7.63312H76.2637L82.4923 24.3406H78.1209L77.0542 21.2669ZM75.997 18.1649L73.8827 11.9797L71.7399 18.1649H75.997Z" fill="#3C2B4A"/>
<path d="M105.187 24.3311H101.073L94.1969 13.9974V24.3311H90.0826V7.50107H94.1969L101.073 17.9291V7.50107H105.187V24.3311Z" fill="#3C2B4A"/>
<path d="M128.254 20.2768C127.54 21.5496 126.511 22.5491 125.178 23.2656C123.835 23.9822 122.264 24.3405 120.454 24.3405H114.035V7.51047H120.454C122.283 7.51047 123.864 7.85933 125.188 8.55704C126.521 9.25476 127.54 10.2353 128.254 11.5082C128.969 12.781 129.321 14.2331 129.321 15.8925C129.321 17.5331 128.959 18.9945 128.254 20.2768ZM123.826 19.4282C124.711 18.5891 125.159 17.4011 125.159 15.8831C125.159 14.3556 124.711 13.1771 123.826 12.3379C122.94 11.4988 121.692 11.0745 120.083 11.0745H118.14V20.6916H120.083C121.692 20.6916 122.94 20.2768 123.826 19.4282Z" fill="#3C2B4A"/>
</svg>
