<svg width="115" height="35" viewBox="0 0 115 35" fill="none" xmlns="http://www.w3.org/2000/svg">
<path d="M16.2429 7.55882L17.0851 7.38096C17.2984 7.38096 17.4781 7.42543 17.6016 7.51436C17.7251 7.60329 17.7925 7.69222 17.7925 7.77003C17.7925 7.84784 17.77 7.97012 17.7363 8.11463C17.7026 8.25914 17.3882 9.74869 16.8043 12.5611C16.2205 15.3734 15.7938 17.4744 15.5243 18.8528C16.8268 17.0964 18.3539 14.9399 20.0943 12.3721C21.8347 9.80427 22.8565 8.10351 23.1484 7.25869C23.2382 6.9919 23.3617 6.79181 23.5077 6.6473C23.6537 6.50279 23.7884 6.41387 23.9007 6.39163C24.013 6.3694 24.1926 6.34717 24.4284 6.34717C24.6642 6.34717 24.9449 6.40275 25.2706 6.50279C25.5962 6.60284 25.7646 6.76958 25.7646 7.01413C25.7646 7.45878 25.0909 8.75936 23.7547 10.8936C22.4185 13.0279 20.8803 15.2956 19.1511 17.6967C17.4219 20.0978 15.9847 21.9986 14.8282 23.3993C14.6261 23.6438 14.3678 23.7772 14.0759 23.7772C13.7839 23.7772 13.4695 23.7216 13.1439 23.6216C12.8183 23.5215 12.6499 23.3437 12.6499 23.0769C12.6499 22.2432 13.3909 18.2192 14.8731 11.027C13.6043 12.65 12.066 14.9177 10.2582 17.819C8.37184 20.8203 7.30515 22.6878 7.05813 23.3993C6.92339 23.8328 6.76619 24.0884 6.58654 24.1551C6.46303 24.2107 6.32828 24.233 6.19354 24.233L5.28404 24.333C5.10439 24.333 4.94719 24.2885 4.78999 24.1885C4.64402 24.0884 4.56543 23.9884 4.56543 23.8772C4.56543 23.5771 4.99211 22.6656 5.83424 21.1538C6.67637 19.642 7.67569 17.9968 8.80975 16.2183C9.94382 14.4397 11.1228 12.7167 12.3579 11.0382C13.593 9.35963 14.5475 8.22579 15.2212 7.65887C15.3559 7.53659 15.5131 7.48101 15.6928 7.48101L16.2429 7.55882Z" fill="#3C2B4A"/>
<path d="M29.7392 15.0956C30.3231 15.0956 30.615 15.2957 30.615 15.6848C30.615 15.896 30.5701 16.0516 30.4691 16.1517C30.368 16.2517 30.1547 16.5741 29.829 17.141C29.5034 17.6968 29.1441 18.4082 28.7511 19.2864C28.3581 20.1534 28.0999 20.8982 27.9876 21.5096C27.9651 21.5874 27.9539 21.6875 27.9539 21.832C27.9539 22.2544 28.0662 22.4545 28.302 22.4545C28.5378 22.4545 28.8073 22.3433 29.1217 22.1321C29.436 21.9098 29.7168 21.6875 29.9638 21.4318C30.2108 21.1872 30.4466 20.9316 30.6824 20.6759C30.9182 20.4202 31.0529 20.2646 31.0979 20.2313C31.1428 20.1979 31.2101 20.1757 31.3 20.1757C31.4459 20.1757 31.5358 20.2868 31.5694 20.5092C31.6031 20.7315 31.6144 20.9538 31.6144 21.1984C31.6144 21.4429 31.5919 21.5985 31.547 21.6875C31.3224 22.121 30.8396 22.6434 30.0761 23.2548C29.3238 23.8662 28.6276 24.1664 28.0101 24.1664C27.3925 24.1664 26.9321 23.9774 26.6514 23.6105C26.3707 23.2437 26.2135 22.8213 26.2135 22.3767C26.2135 21.9209 26.2921 21.5318 26.4493 21.1872C25.8093 22.0098 25.0794 22.699 24.2598 23.2771C23.4289 23.844 22.7664 24.133 22.2387 24.133C21.7109 24.133 21.2955 23.9774 20.9586 23.6661C20.532 23.2771 20.3298 22.7435 20.3298 22.0543C20.3298 21.3651 20.487 20.6759 20.8014 19.9756C21.1158 19.2864 21.5201 18.6417 22.0253 18.0747C22.5306 17.4967 23.092 16.9742 23.6983 16.5074C24.9672 15.518 26.1461 15.0289 27.2241 15.0289C27.6395 15.0289 27.9764 15.0956 28.2346 15.229C28.4929 15.3624 28.6613 15.5403 28.7287 15.7404C28.9083 15.4625 29.0655 15.2957 29.2003 15.2179C29.3013 15.129 29.4922 15.0956 29.7392 15.0956ZM28.2122 16.3629C26.8984 16.3629 25.5398 17.0854 24.1363 18.5305C23.6422 19.053 23.1818 19.6643 22.7552 20.3869C22.3285 21.1094 22.1264 21.5985 22.1264 21.8653C22.1264 22.1321 22.205 22.2655 22.3622 22.2655C22.5755 22.2655 23.1706 21.8431 24.1587 21.0094C25.1468 20.1757 25.7981 19.5532 26.1125 19.153C26.4718 18.7084 27.1679 17.7746 28.2122 16.3629Z" fill="#3C2B4A"/>
<path d="M38.475 9.07056L38.9466 9.18172C39.014 9.18172 39.0814 9.21507 39.1263 9.28176C39.1824 9.34846 39.2049 9.41516 39.2049 9.47074C39.2049 9.52632 39.1263 9.69306 38.9579 9.95984C38.7895 10.2266 38.6098 10.5268 38.3852 10.8602C38.1607 11.1937 38.0484 11.3827 38.0371 11.4161C38.6322 11.3716 39.0589 11.3494 39.306 11.3494C39.553 11.3494 39.7214 11.3716 39.8225 11.4049C39.9123 11.4383 40.0246 11.5383 40.1368 11.694C40.2604 11.8496 40.3614 11.9719 40.4625 12.0497C40.5635 12.1275 40.6085 12.2498 40.6085 12.4054C40.6085 12.561 40.5074 12.7055 40.3165 12.8056C40.1256 12.9167 39.9123 12.9834 39.6877 13.0057C37.9024 13.1835 36.9255 13.2724 36.7459 13.2836C36.1283 14.2284 35.2525 15.6957 34.1409 17.6855C33.0293 19.6753 32.4342 20.9314 32.3668 21.4316C32.3331 21.6651 32.3219 21.8429 32.3219 21.9875C32.3219 22.2876 32.4791 22.4321 32.7935 22.4321C33.1079 22.4321 33.456 22.3098 33.8377 22.0764C34.2195 21.8318 34.5788 21.5762 34.8932 21.2983C35.7578 20.5424 36.2182 20.1533 36.2743 20.1533C36.4764 20.1533 36.5775 20.4979 36.5775 21.176C36.5775 21.5428 36.409 21.8763 36.061 22.1764C35.2862 22.8323 34.6349 23.3325 34.1072 23.666C33.5795 23.9995 33.0517 24.1662 32.5128 24.1662C32.4005 24.1662 32.2882 24.1551 32.1872 24.1329C31.5696 24.0217 31.1205 23.7994 30.8398 23.4659C30.5478 23.1324 30.4131 22.6878 30.4131 22.132C30.4131 21.5762 30.5815 20.887 30.9184 20.0866C31.2552 19.2862 31.6707 18.4303 32.1759 17.5299C33.0068 16.0515 33.8377 14.6731 34.6574 13.3836L34.2195 13.4392C33.3325 13.5392 32.816 13.5837 32.67 13.5837H32.5689C32.3444 13.5837 32.131 13.5392 31.9289 13.4503C31.7268 13.3614 31.6145 13.2502 31.6145 13.1279C31.6145 12.9945 31.6707 12.8723 31.7829 12.75C31.8952 12.6277 31.9626 12.5277 31.9851 12.461C32.0412 12.2942 32.2433 12.1052 32.5914 11.9052C32.9395 11.7051 33.1977 11.5939 33.3774 11.5828C33.557 11.5717 33.7254 11.5606 33.8939 11.5494C34.0623 11.5383 34.242 11.5383 34.4441 11.5272C34.6462 11.5161 34.8034 11.5161 34.9157 11.505L35.9487 11.4605C36.5887 10.5045 37.0378 9.88203 37.2736 9.61524C37.5206 9.33734 37.6554 9.19283 37.6891 9.1706C37.7228 9.14837 37.8013 9.12614 37.9249 9.12614L38.475 9.07056Z" fill="#3C2B4A"/>
<path d="M45.3804 20.1756C45.5263 20.1756 45.6162 20.2868 45.6498 20.5091C45.6835 20.7314 45.6948 20.9537 45.6948 21.1983C45.6948 21.4428 45.6723 21.5985 45.6274 21.6874C45.4028 22.1098 44.92 22.6323 44.1677 23.2436C43.4154 23.855 42.6968 24.1663 42.0231 24.1663C41.6076 24.1663 41.2259 24.044 40.8666 23.7995C40.5185 23.5549 40.3388 23.1214 40.3388 22.51C40.3388 21.8986 40.5073 21.2872 40.8329 20.6981C38.9241 23.0658 37.4419 24.2441 36.3528 24.2441C35.9261 24.2441 35.578 24.0885 35.3085 23.7883C35.039 23.4882 34.9155 23.177 34.9155 22.8435C34.9155 22.5211 34.9604 22.1876 35.0503 21.843C35.1401 21.4984 35.2412 21.1872 35.3422 20.9093C35.4433 20.6314 35.6005 20.2979 35.8026 19.8977C36.0047 19.4975 36.1619 19.2085 36.2517 19.0195C36.3415 18.8306 36.51 18.5638 36.7345 18.1969C36.9591 17.8301 37.2398 17.3299 37.5991 16.7074C37.9584 16.0849 38.2503 15.618 38.4861 15.3179C38.7219 15.0177 38.9465 14.8621 39.1711 14.8621C39.3956 14.8621 39.5865 14.951 39.755 15.1289C39.9234 15.3068 40.0132 15.4624 40.0132 15.5735C40.0132 15.6847 39.755 16.196 39.2385 17.1076C37.7226 19.831 36.9591 21.4095 36.9591 21.8653C36.9591 21.9764 37.004 22.032 37.0826 22.032C37.4531 22.032 38.3739 21.2428 39.8336 19.6643C41.2932 18.0858 42.1466 17.0742 42.3824 16.6296C42.6182 16.1849 42.8315 15.807 43.0561 15.5069C43.2694 15.2067 43.4379 15.0177 43.5501 14.951C43.8758 14.7398 44.3024 14.6287 44.8302 14.6064C44.92 14.6064 44.9761 14.6064 45.0211 14.6176C45.066 14.6287 45.1221 14.6954 45.1783 14.8065C45.2344 14.9177 45.2681 15.0177 45.2681 15.0956C45.2007 15.3068 44.8975 15.8737 44.3474 16.7963C43.8084 17.719 43.5052 18.2414 43.4491 18.3526C42.5396 20.209 42.0905 21.4206 42.0905 21.9764C42.0905 22.2988 42.214 22.4544 42.461 22.4544C42.9101 22.3988 43.4491 22.0431 44.0779 21.3984C44.3137 21.1649 44.5382 20.9204 44.7628 20.6758C44.9874 20.4313 45.1333 20.2868 45.1783 20.2534C45.2344 20.1978 45.3018 20.1756 45.3804 20.1756Z" fill="#3C2B4A"/>
<path d="M48.7151 17.5411C50.5228 15.5069 52.0724 14.4842 53.3412 14.4842C53.6556 14.4842 53.9138 14.5731 54.1159 14.7621C54.318 14.9511 54.4191 15.1845 54.4191 15.4847C54.4191 15.7848 54.2058 16.2739 53.7791 16.9742C53.3524 17.6634 52.9594 18.2526 52.6001 18.7306C52.4092 18.9751 52.1959 19.0974 51.9489 19.0974C51.7131 19.0974 51.5222 19.0085 51.3874 18.8306C51.2527 18.6527 51.1853 18.4527 51.1853 18.2192C51.1853 17.6968 51.466 17.0965 52.0387 16.4406L52.0162 16.4184C51.758 16.4406 51.1404 16.9409 50.1299 17.8969C49.1305 18.864 48.2772 19.731 47.5698 20.4869C46.8736 21.2539 46.1101 22.1765 45.2792 23.277C45.0434 23.5994 44.8413 23.7662 44.6729 23.7662C44.5044 23.7662 44.2911 23.7106 44.0216 23.6105C43.7521 23.5105 43.5837 23.4327 43.5276 23.3882C43.4714 23.3437 43.4377 23.2659 43.4377 23.1548C43.4377 23.0547 43.4714 22.9213 43.5276 22.7879C43.5837 22.6434 43.7072 22.4433 43.8644 22.1877C44.0216 21.932 44.2799 21.5096 44.6167 20.9315C44.9536 20.3535 45.4701 19.4753 46.1775 18.3082C46.8849 17.141 47.3003 16.4295 47.4463 16.185C47.7382 15.6848 47.974 15.3179 48.1649 15.0956C48.513 14.6621 49.0968 14.4509 49.9165 14.4509C50.0962 14.4509 50.1972 14.562 50.1972 14.7955C50.1972 15.1512 49.8604 15.8293 49.1979 16.8075L48.7151 17.5411Z" fill="#3C2B4A"/>
<path d="M61.1001 15.229C61.1001 15.7292 60.898 16.1738 60.4826 16.5518C60.0671 16.9297 59.6067 17.1187 59.079 17.1187C58.9106 17.1187 58.7983 17.0742 58.7421 16.9964C58.686 16.9186 58.6635 16.8074 58.6635 16.6852C58.6635 16.5629 58.6748 16.4295 58.7085 16.3072C58.4278 16.3962 58.1246 16.5407 57.7877 16.7296C57.4509 16.9186 57.0354 17.1965 56.5414 17.5745C56.0473 17.9524 55.8003 18.2192 55.8003 18.4082C55.8003 18.4637 55.8901 18.4971 56.0698 18.4971C56.2494 18.4971 56.5302 18.4304 56.9007 18.3081C57.2712 18.1858 57.5407 18.1191 57.6867 18.1191C57.8326 18.1191 57.9337 18.1303 57.9786 18.1414C58.0797 18.197 58.1807 18.3081 58.3042 18.486C58.4165 18.6638 58.4727 18.8083 58.4727 18.9084C58.4727 19.0084 58.3716 19.1418 58.1695 19.3086C57.9674 19.4753 57.7428 19.5976 57.4958 19.6865C57.2375 19.7754 57.0691 19.8421 56.9905 19.8866C55.3736 20.787 54.5652 21.3984 54.5652 21.7319C54.5652 22.321 55.0705 22.6212 56.0923 22.6212C56.7435 22.6212 57.406 22.4211 58.0572 22.0098C58.6186 21.6652 59.1239 21.3095 59.5731 20.9426C60.0222 20.5869 60.3029 20.3646 60.4264 20.2757C60.5499 20.1867 60.6398 20.1534 60.6959 20.1534C60.898 20.1534 60.999 20.3757 60.999 20.8204C60.999 21.265 60.9766 21.554 60.9205 21.6874C60.8643 21.8319 60.7183 21.9987 60.4601 22.2099C58.8207 23.5327 57.26 24.1996 55.8003 24.1996C55.0143 24.1996 54.3968 24.0885 53.9252 23.8773C53.0606 23.4882 52.6339 22.8991 52.6339 22.0987C52.6339 21.0538 53.3638 20.2534 54.8347 19.7199C54.5427 19.5865 54.3519 19.4308 54.2733 19.2196C54.1834 19.0196 54.1497 18.6972 54.1497 18.2525C54.1497 17.8079 54.3631 17.341 54.7785 16.8408C55.194 16.3406 55.7105 15.9293 56.3168 15.618C57.6642 14.8955 58.8769 14.5398 59.9324 14.5398C60.1906 14.5398 60.4376 14.5953 60.7071 14.7176C60.9766 14.8399 61.1001 15.0066 61.1001 15.229Z" fill="#3C2B4A"/>
<path d="M87.3071 7.49213H87.4531C87.498 7.49213 87.5317 7.49213 87.5429 7.50325C87.5541 7.51436 87.5654 7.51436 87.5878 7.52548C87.6103 7.52548 87.6215 7.53659 87.644 7.55883C87.6776 7.59217 87.7338 7.62552 87.8011 7.65887C87.891 7.72557 87.9359 7.80338 87.9359 7.89231C87.9359 7.98124 87.8461 8.17021 87.6664 8.45923C87.4867 8.74825 87.0264 9.44856 86.2741 10.5824C84.5561 13.1836 83.0179 15.6069 81.6592 17.8301C79.3125 21.6985 78.1223 23.6438 78.0998 23.666C78.0774 23.6883 78.0661 23.7105 78.0549 23.7327C78.0437 23.7772 78.0212 23.7994 77.9651 23.7994L77.8079 23.7661L77.4935 23.8439L77.3138 23.8105L77.123 23.8439H77.0556L76.4156 23.9328C76.0338 23.9328 75.8429 23.7994 75.8429 23.5438C75.8429 23.4326 75.8766 23.2992 75.944 23.1436C76.1798 22.5878 77.3812 20.5758 79.5371 17.0853C78.1223 17.1187 76.7187 17.1409 75.3376 17.1409L72.8674 17.1298C72.4632 17.7745 71.9018 18.686 71.1944 19.8755C69.6673 22.4655 68.8589 23.7661 68.7578 23.7883C68.6568 23.8106 68.5782 23.8328 68.5108 23.8328C68.4434 23.8328 68.3873 23.7994 68.3424 23.7216C68.2862 23.6549 68.2525 23.6105 68.2301 23.6105C68.2076 23.6105 68.1739 23.6216 68.1066 23.6549C68.0504 23.6883 67.9606 23.6994 67.8371 23.6994L67.5676 23.6883L67.4666 23.6216C67.4553 23.6216 67.4441 23.6327 67.4329 23.6549C67.4217 23.6772 67.388 23.6883 67.3431 23.6883C67.0174 23.6883 66.849 23.5549 66.849 23.277C66.849 23.0991 66.9164 22.8546 67.0399 22.5544C67.1746 22.2543 67.3431 21.9319 67.5564 21.5873C67.7697 21.2427 68.3087 20.409 69.1957 19.1084C70.0715 17.8079 70.5094 17.152 70.5094 17.1409C70.3635 17.1298 70.1951 17.1298 70.0042 17.1187C69.6112 17.1187 69.3417 17.1075 69.1733 17.0742C68.7354 16.9964 68.4322 16.6407 68.275 16.0071C68.1852 15.6958 68.1515 15.4957 68.1627 15.3957C68.1627 15.1956 68.2525 15.0844 68.4322 15.0844L68.7354 15.1622C68.8926 15.1733 69.2519 15.1845 69.8358 15.2178C70.4196 15.2512 70.8351 15.2623 71.0933 15.2623L71.7446 15.24C72.7439 13.6949 73.9341 11.9386 75.3264 9.98213C74.3159 10.8047 73.193 11.216 71.9579 11.216C71.374 11.216 70.8687 11.0826 70.4533 10.8047C70.0266 10.5268 69.8245 10.1711 69.8245 9.7487C69.8245 9.32629 69.9817 8.9928 70.3073 8.73713C70.633 8.49258 70.9361 8.3703 71.2281 8.3703C71.52 8.3703 71.666 8.41477 71.666 8.50369C71.666 8.53704 71.621 8.57039 71.5425 8.60374C71.4639 8.6482 71.4189 8.68155 71.4189 8.7149C71.4189 8.83718 71.5537 8.94834 71.8232 9.03727C72.0926 9.12619 72.3958 9.18178 72.7327 9.18178C73.0695 9.18178 73.4737 9.08173 73.9678 8.89276C74.4618 8.70378 74.9671 8.44811 75.4948 8.14798C76.2359 7.72557 76.8198 7.36985 77.2465 7.09195C77.4935 6.96967 77.7181 6.91409 77.9426 6.91409C78.1672 6.91409 78.3132 6.93632 78.4142 6.99191C78.5153 7.03637 78.5826 7.09195 78.6276 7.13642C78.6725 7.18088 78.7286 7.24758 78.7735 7.32539C78.8297 7.4032 78.8746 7.4699 78.9307 7.50325C78.9756 7.54771 79.0093 7.59217 79.0093 7.64775C79.0093 7.70334 78.9756 7.78115 78.9195 7.90343C78.8634 8.01459 78.5714 8.48146 78.0437 9.29294C77.516 10.1044 76.831 11.1382 76.0001 12.3943C75.1692 13.6504 74.5629 14.5731 74.1811 15.1734C76.2359 15.1734 78.4479 15.14 80.8283 15.0622C83.7252 10.5379 85.2523 8.17021 85.4095 7.94789C85.5667 7.72557 85.7127 7.58106 85.8474 7.51436C85.9821 7.44767 86.1393 7.41432 86.3302 7.41432L87.3071 7.49213Z" fill="#3C2B4A"/>
<path d="M91.0575 15.0733C91.2933 15.0733 91.5291 15.1733 91.7649 15.3845C92.0119 15.5957 92.1242 15.907 92.1242 16.3294C92.1242 16.7518 91.9783 17.2965 91.6751 17.9746C91.3719 18.6415 90.9677 19.3307 90.44 20.031C89.9235 20.7202 89.3396 21.3761 88.722 21.9875C88.0932 22.5989 87.4195 23.0991 86.7009 23.4881C85.9711 23.8772 85.3198 24.0773 84.7247 24.0773C84.1296 24.0773 83.658 23.8883 83.2987 23.5215C82.9394 23.1547 82.7598 22.6433 82.7598 21.9875C82.7598 21.3316 82.9282 20.598 83.2538 19.8087C83.5794 19.0084 83.9949 18.308 84.5114 17.6967C85.0279 17.0853 85.5781 16.5406 86.1844 16.0515C87.4308 15.051 88.5311 14.5619 89.4743 14.5619C89.901 14.5619 90.2154 14.662 90.4287 14.8732C90.5073 14.9399 90.541 15.0066 90.541 15.051V15.1177C90.6645 15.0733 90.833 15.0733 91.0575 15.0733ZM89.901 16.585H89.8224C89.5529 16.585 89.4182 16.3961 89.4182 16.007C88.8568 16.1849 88.2729 16.5072 87.6553 16.963C87.0378 17.4188 86.4876 17.9634 86.0048 18.5859C85.0167 19.8309 84.5226 20.887 84.5114 21.7429C84.5114 22.1653 84.6686 22.3765 84.983 22.3765C85.2974 22.3765 85.769 22.1653 86.3865 21.7651C87.0041 21.365 87.6217 20.7758 88.2392 20.0088C88.8455 19.2529 89.3059 18.5859 89.6091 18.0301C89.9122 17.4743 90.0694 17.0964 90.0694 16.8852C90.0582 16.6851 90.0021 16.585 89.901 16.585Z" fill="#3C2B4A"/>
<path d="M91.877 23.8216L91.3155 23.7994H91.1134C91.0348 23.7772 90.9562 23.7327 90.8664 23.666C90.7766 23.5993 90.7092 23.5437 90.6643 23.5215C90.6194 23.4993 90.5969 23.4326 90.5969 23.3547C90.5969 23.2769 90.6306 23.1324 90.6868 22.9435C92.1801 19.6864 93.6286 17.0742 95.0321 15.1288C95.1893 14.9176 95.4364 14.7509 95.7732 14.6397C96.1101 14.5286 96.4469 14.473 96.7725 14.473C96.9634 14.473 97.0645 14.6175 97.0645 14.9176C97.0645 15.0066 97.0308 15.1177 96.9746 15.2511C96.9185 15.3956 96.7613 15.618 96.5143 15.9403C96.2673 16.2627 95.9753 16.6295 95.6385 17.0297C95.3016 17.4299 95.1107 17.6744 95.0658 17.7411C96.1213 16.6629 97.0645 15.8625 97.9178 15.3289C98.7712 14.8065 99.3775 14.5397 99.7593 14.5397C100.141 14.5397 100.433 14.6508 100.635 14.8621C100.837 15.0733 100.938 15.3067 100.938 15.5513C100.938 15.7958 100.916 16.007 100.882 16.1626C100.848 16.3294 100.781 16.4961 100.691 16.674C100.601 16.8518 100.523 17.0075 100.455 17.1297C100.388 17.252 100.276 17.4188 100.13 17.6188C99.9726 17.8189 99.8716 17.9634 99.8154 18.0413C99.7593 18.1191 99.6358 18.2636 99.4561 18.4748C99.2765 18.686 99.1754 18.8083 99.1642 18.8305C99.3775 18.6193 99.6807 18.308 100.062 17.8856C100.444 17.4632 100.77 17.1186 101.039 16.8407C101.309 16.5628 101.634 16.2405 102.039 15.8847C102.443 15.529 102.813 15.24 103.15 15.0288C103.981 14.5175 104.823 14.2507 105.677 14.2507C105.969 14.2507 106.216 14.3396 106.418 14.5286C106.62 14.7175 106.721 14.9288 106.721 15.1844C106.721 15.4401 106.406 16.0515 105.789 17.0075C105.171 17.9634 104.543 18.9305 103.925 19.8976C103.307 20.8647 102.993 21.4761 102.993 21.7318C102.993 22.0764 103.06 22.2876 103.184 22.3543C103.319 22.421 103.476 22.4432 103.656 22.4321C103.835 22.421 104.105 22.2987 104.43 22.0764C104.767 21.8541 105.059 21.6318 105.317 21.3872C105.744 21.0093 106.126 20.6424 106.496 20.2867C106.575 20.22 106.653 20.1867 106.755 20.1867C106.901 20.1867 106.99 20.2978 107.024 20.5201C107.058 20.7425 107.069 20.9648 107.069 21.2093C107.069 21.4539 107.046 21.6095 107.002 21.6985C106.777 22.1209 106.283 22.6433 105.531 23.2658C104.767 23.8772 104.037 24.1885 103.341 24.1885C103.251 24.1885 103.195 24.1885 103.161 24.1773C102.375 24.0995 101.825 23.8883 101.522 23.5326C101.219 23.1769 101.073 22.7545 101.073 22.2765C101.073 21.7985 101.241 21.1982 101.578 20.509C101.915 19.8198 102.274 19.1862 102.679 18.6304C103.083 18.0746 103.442 17.5633 103.779 17.1075C104.116 16.6517 104.284 16.4072 104.284 16.3738C104.284 16.3405 104.251 16.3183 104.194 16.3183C103.959 16.3183 103.431 16.6962 102.6 17.4632C101.197 18.7638 99.9838 20.0199 98.9621 21.2205C98.6926 21.5428 98.0526 22.3432 97.0532 23.6438C96.941 23.7994 96.7501 23.8772 96.5031 23.8772C96.256 23.8772 95.9978 23.8327 95.7283 23.7327C95.4588 23.6326 95.3241 23.5104 95.3241 23.3659C95.3241 23.2881 95.9304 22.2209 97.1543 20.1644C98.3782 18.108 98.9845 16.9852 98.9845 16.8074C98.9845 16.6184 98.8722 16.5295 98.6477 16.5295C98.4231 16.5295 97.9515 16.863 97.2441 17.5299C95.3016 19.3641 93.797 21.1982 92.7303 23.0102C92.663 23.1213 92.5282 23.2881 92.3261 23.5104C92.124 23.7327 91.9443 23.8216 91.877 23.8216Z" fill="#3C2B4A"/>
<path d="M114.143 15.229C114.143 15.7292 113.941 16.1739 113.526 16.5518C113.11 16.9298 112.65 17.1187 112.122 17.1187C111.954 17.1187 111.842 17.0743 111.785 16.9965C111.729 16.9186 111.707 16.8075 111.707 16.6852C111.707 16.5629 111.718 16.4295 111.752 16.3073C111.471 16.3962 111.168 16.5407 110.831 16.7297C110.494 16.9186 110.079 17.1965 109.585 17.5745C109.091 17.9524 108.844 18.2192 108.844 18.4082C108.844 18.4638 108.933 18.4971 109.113 18.4971C109.293 18.4971 109.573 18.4304 109.944 18.3082C110.315 18.1859 110.584 18.1192 110.73 18.1192C110.876 18.1192 110.977 18.1303 111.022 18.1414C111.123 18.197 111.224 18.3082 111.348 18.486C111.46 18.6639 111.516 18.8084 111.516 18.9084C111.516 19.0085 111.415 19.1419 111.213 19.3086C111.011 19.4753 110.786 19.5976 110.539 19.6865C110.281 19.7755 110.112 19.8422 110.034 19.8866C108.417 20.787 107.609 21.3984 107.609 21.7319C107.609 22.3211 108.114 22.6212 109.136 22.6212C109.787 22.6212 110.449 22.4211 111.101 22.0098C111.662 21.6652 112.167 21.3095 112.616 20.9427C113.066 20.587 113.346 20.3646 113.47 20.2757C113.593 20.1868 113.683 20.1534 113.739 20.1534C113.941 20.1534 114.042 20.3757 114.042 20.8204C114.042 21.265 114.02 21.554 113.964 21.6874C113.908 21.832 113.762 21.9987 113.503 22.2099C111.864 23.5327 110.303 24.1997 108.844 24.1997C108.058 24.1997 107.44 24.0885 106.969 23.8773C106.104 23.4882 105.677 22.8991 105.677 22.0987C105.677 21.0538 106.407 20.2535 107.878 19.7199C107.586 19.5865 107.395 19.4309 107.317 19.2197C107.227 19.0196 107.193 18.6972 107.193 18.2526C107.193 17.8079 107.406 17.3411 107.822 16.8408C108.237 16.3406 108.754 15.9293 109.36 15.6181C110.708 14.8955 111.92 14.5398 112.976 14.5398C113.234 14.5398 113.481 14.5954 113.75 14.7177C114.02 14.8399 114.143 15.0067 114.143 15.229Z" fill="#3C2B4A"/>
<path d="M0.320801 26.9008C3.27386 28.1236 6.28306 29.0685 9.34841 29.791C12.3913 30.5469 15.4903 31.0805 18.5894 31.414C20.1389 31.6252 21.6996 31.6474 23.2379 31.7919C24.7987 31.803 26.3482 31.9253 27.8977 31.8364L30.222 31.7808C30.9967 31.7697 31.7715 31.6696 32.5462 31.6252C33.321 31.5585 34.0957 31.5251 34.8593 31.4251L37.1611 31.1027C40.2489 30.7692 43.2469 30.0578 46.2336 29.2019C49.2541 28.3793 52.1061 27.2899 55.1265 26.156C58.2143 25.0333 61.5604 24.2997 64.9513 24.6554C66.6244 24.8666 68.3086 25.4001 69.6785 26.3784C71.0596 27.3455 72.0477 28.7239 72.6764 30.169C71.7333 28.8795 70.5543 27.8235 69.1956 27.1676C67.837 26.5118 66.3436 26.245 64.8615 26.2894C61.8635 26.3339 58.9104 27.3232 56.137 28.5682C53.3187 29.9466 50.2646 31.1916 47.188 32.2254C44.089 33.2148 40.8889 34.004 37.6439 34.4042C31.1876 35.249 24.5741 35.2601 18.1964 33.9818C14.9963 33.4037 11.8748 32.5033 8.85435 31.3584C5.85638 30.169 2.92578 28.7794 0.320801 26.9008Z" fill="#3C2B4A"/>
<path d="M107.698 8.3926C105.194 7.33657 102.645 6.51398 100.063 5.86925C97.4915 5.19116 94.8865 4.71317 92.2703 4.37969C90.9678 4.1796 89.6428 4.13514 88.3403 3.97951C87.0266 3.94616 85.7241 3.81277 84.4104 3.86835C83.7591 3.87947 83.0967 3.87947 82.4454 3.86835C81.7942 3.86835 81.1317 3.93505 80.4805 3.95728C79.8292 4.00174 79.1667 4.01286 78.5155 4.07956L76.5618 4.31299C73.9455 4.5242 71.4079 5.05777 68.8703 5.71362C66.299 6.32501 63.8625 7.19206 61.2687 8.05912C58.6076 8.93729 55.7219 9.47086 52.825 9.07068C51.399 8.83724 49.9617 8.33702 48.8277 7.44773C47.6712 6.56956 46.8852 5.36902 46.4023 4.1129C47.1996 5.2134 48.1877 6.1138 49.3217 6.6696C50.4558 7.22541 51.7021 7.45885 52.9485 7.44773C55.4636 7.44773 57.9563 6.64737 60.3143 5.64692C62.7172 4.51308 65.3558 3.51264 67.9833 2.69004C70.6332 1.9008 73.3954 1.30053 76.1575 1.01152C81.6707 0.433478 87.3073 0.566871 92.7082 1.83411C95.4142 2.40103 98.0529 3.26808 100.579 4.33523C103.117 5.4246 105.565 6.69184 107.698 8.3926Z" fill="#3C2B4A"/>
</svg>
