<svg width="92" height="38" viewBox="0 0 92 38" fill="none" xmlns="http://www.w3.org/2000/svg">
<path d="M0.143188 23.2199V0.476349H13.6734V23.2088H0.143188V23.2199ZM12.0341 17.9286L12.3821 15.4164L11.1245 15.2941L10.7428 17.2283C9.95679 17.6174 8.99115 17.8063 7.83463 17.8063C6.26266 17.8063 5.0163 17.3172 4.1068 16.3279C3.18608 15.3386 2.73694 14.038 2.73694 12.415C2.73694 10.8365 3.18608 9.53596 4.07312 8.51328C4.96016 7.4906 6.12794 6.97926 7.5764 6.97926C8.31747 6.97926 8.94624 7.06819 9.45152 7.23493C9.9568 7.40167 10.4172 7.624 10.8551 7.91301L11.2256 9.82498L12.5056 9.7027L12.1351 7.19047C11.5962 6.73471 10.9561 6.36788 10.215 6.07886C9.47397 5.80096 8.55326 5.65645 7.46411 5.65645C6.17285 5.65645 5.06124 5.9677 4.12928 6.60131C3.19733 7.23493 2.46748 8.06864 1.95097 9.10244C1.43447 10.1473 1.17621 11.2701 1.17621 12.4706C1.17621 14.3715 1.77131 15.9611 2.96152 17.2283C4.15173 18.4955 5.70124 19.1291 7.62129 19.1291C9.50766 19.1291 10.9786 18.729 12.0341 17.9286Z" fill="#3C2B4A"/>
<path d="M18.266 23.2198V0.476288H24.0823V23.2087H18.266V23.2198ZM18.8835 18.929H23.4759V17.784H21.8928V5.08947H18.8611V6.23442H20.4667V17.784H18.8835V18.929Z" fill="#3C2B4A"/>
<path d="M28.6747 23.2198V0.476288H38.8925V23.2087H28.6747V23.2198ZM30.5274 10.6586L30.2018 12.7262L31.3807 12.8707L31.7288 11.3256C32.2341 11.081 32.8067 10.9588 33.4804 10.9588C34.2889 10.9588 34.8391 11.1589 35.1198 11.559C35.4005 11.9592 35.5352 12.4817 35.5352 13.1264V13.9268C35.2882 13.9045 35.0299 13.8823 34.7492 13.8712C34.4685 13.8601 34.1991 13.8489 33.9296 13.8489C32.919 13.8489 31.9534 14.0268 31.0551 14.3825C30.1568 14.7382 29.7077 15.483 29.7077 16.6057C29.7077 17.5617 30.0109 18.2176 30.6284 18.5733C31.246 18.9401 31.8523 19.118 32.4474 19.118C33.1773 19.118 33.806 18.929 34.3226 18.5511C34.8391 18.1731 35.2433 17.7507 35.5352 17.2616V17.306C35.5577 18.5177 36.1079 19.118 37.1858 19.118C37.6013 19.118 37.9942 19.0179 38.3648 18.8178L38.3423 17.8952C38.1627 17.973 37.9606 18.0175 37.736 18.0175C37.2195 18.0175 36.9612 17.6951 36.9612 17.0504V12.7929C36.9612 10.792 35.8833 9.79157 33.7275 9.79157C33.1323 9.79157 32.5709 9.85827 32.0432 9.99166C31.5042 10.1362 30.9989 10.3585 30.5274 10.6586ZM35.524 15.5719C35.4679 16.3056 35.1647 16.8948 34.6145 17.3172C34.0643 17.7507 33.4804 17.9619 32.8516 17.9619C32.4586 17.9619 32.0769 17.8507 31.7176 17.6395C31.3471 17.4283 31.1674 17.0281 31.1674 16.4501C31.1674 15.7498 31.4481 15.3052 31.9871 15.0939C32.5373 14.8827 33.1436 14.7827 33.8285 14.7827C34.1317 14.7827 34.4236 14.7938 34.7043 14.8272C34.985 14.8494 35.2657 14.8716 35.5128 14.8827V15.5719H35.524Z" fill="#3C2B4A"/>
<path d="M43.4961 23.2198V0.476288H52.7819V23.2087H43.4961V23.2198ZM51.8051 16.339C51.8051 15.6275 51.6142 15.1051 51.2324 14.7605C50.8507 14.4159 50.3903 14.1824 49.8289 14.049C49.2675 13.9156 48.7173 13.8045 48.1671 13.7156C47.6169 13.6266 47.1453 13.4821 46.7636 13.2931C46.3818 13.1042 46.1909 12.7707 46.1909 12.2927C46.1909 11.8369 46.3705 11.5035 46.7411 11.2811C47.1116 11.0588 47.572 10.9588 48.1446 10.9588C48.8071 10.9588 49.4247 11.1033 49.9973 11.4034L50.2219 12.8485L51.4009 12.704L51.1763 10.6142C50.7945 10.3807 50.3342 10.1918 49.784 10.0361C49.2338 9.8805 48.6499 9.79157 48.0211 9.79157C47.1902 9.79157 46.4267 9.99166 45.7193 10.3807C45.0119 10.7698 44.6639 11.4368 44.6639 12.3927C44.6639 13.0931 44.8547 13.6044 45.2365 13.9268C45.6182 14.2602 46.0899 14.4826 46.6625 14.616C47.2352 14.7493 47.7965 14.8605 48.358 14.9606C48.9194 15.0495 49.391 15.2051 49.7728 15.4052C50.1545 15.6053 50.3454 15.9499 50.3454 16.4501C50.3454 16.9615 50.0983 17.3394 49.6043 17.584C49.1102 17.8285 48.5489 17.9508 47.9088 17.9508C47.1902 17.9508 46.5165 17.8063 45.8989 17.5061L45.9551 16.3167L44.821 16.1944L44.5403 18.2287C44.9333 18.4844 45.4498 18.6956 46.0786 18.8623C46.7074 19.029 47.3362 19.118 47.9762 19.118C49.0654 19.118 49.9749 18.8734 50.7047 18.3732C51.4346 17.8952 51.8051 17.206 51.8051 16.339Z" fill="#3C2B4A"/>
<path d="M57.3746 23.2198V0.476318H66.6605V23.2087H57.3746V23.2198ZM65.6836 16.339C65.6836 15.6276 65.4927 15.1051 65.1109 14.7605C64.7292 14.4159 64.2688 14.1825 63.7074 14.0491C63.146 13.9157 62.5958 13.8045 62.0456 13.7156C61.4954 13.6267 61.0238 13.4821 60.6421 13.2932C60.2603 13.1042 60.0694 12.7707 60.0694 12.2927C60.0694 11.837 60.249 11.5035 60.6196 11.2812C60.9901 11.0588 61.4505 10.9588 62.0231 10.9588C62.6856 10.9588 63.3032 11.1033 63.8758 11.4034L64.1004 12.8485L65.2794 12.704L65.0548 10.6142C64.673 10.3808 64.2127 10.1918 63.6625 10.0362C63.1123 9.88053 62.5284 9.7916 61.8996 9.7916C61.0687 9.7916 60.3052 9.99169 59.5978 10.3808C58.8904 10.7698 58.5424 11.4368 58.5424 12.3928C58.5424 13.0931 58.7333 13.6044 59.115 13.9268C59.4968 14.2603 59.9684 14.4826 60.541 14.616C61.1137 14.7494 61.6751 14.8605 62.2365 14.9606C62.7979 15.0495 63.2695 15.2051 63.6513 15.4052C64.033 15.6053 64.2239 15.9499 64.2239 16.4501C64.2239 16.9615 63.9769 17.3394 63.4829 17.584C62.9888 17.8285 62.4274 17.9508 61.7874 17.9508C61.0688 17.9508 60.395 17.8063 59.7775 17.5062L59.8337 16.3167L58.6996 16.1945L58.4189 18.2287C58.8119 18.4844 59.3284 18.6956 59.9571 18.8623C60.5859 19.0291 61.2147 19.118 61.8547 19.118C62.9439 19.118 63.8534 18.8734 64.5832 18.3732C65.3131 17.8952 65.6836 17.206 65.6836 16.339Z" fill="#3C2B4A"/>
<path d="M71.2527 23.2198V0.476288H77.3722V23.2087H71.2527V23.2198ZM72.1509 18.929H76.7434V17.784H75.1601V9.98055H72.1173V11.1255H73.7454V17.784H72.1622V18.929H72.1509ZM73.5882 5.83424V7.6684H75.1377V5.83424H73.5882Z" fill="#3C2B4A"/>
<path d="M81.9644 23.2198V0.476288H91.7443V23.2087H81.9644V23.2198ZM90.8684 15.9165L89.6446 15.6497C89.3751 17.1615 88.5555 17.9174 87.2081 17.9174C86.3098 17.9174 85.6248 17.6173 85.1532 17.017C84.6817 16.4168 84.4459 15.5719 84.4459 14.5048C84.4459 13.5377 84.6592 12.7151 85.0746 12.0259C85.4901 11.3367 86.1862 11.0032 87.1519 11.0032C87.8929 11.0032 88.5442 11.17 89.0832 11.5034L89.4313 13.0152L90.6102 12.8707L90.2621 10.7142C89.8018 10.3696 89.319 10.1251 88.8137 9.99166C88.3084 9.85827 87.7582 9.79157 87.1631 9.79157C85.7596 9.79157 84.6928 10.2807 83.9967 11.2589C83.2893 12.2371 82.9412 13.3487 82.9412 14.5826C82.9412 16.0166 83.3118 17.1393 84.0641 17.9285C84.8051 18.7289 85.8045 19.1291 87.0508 19.1291C88.2972 19.1291 89.2179 18.7845 89.8018 18.1064C90.3857 17.4172 90.7449 16.6947 90.8684 15.9165Z" fill="#3C2B4A"/>
<path d="M5.99312 35.6364C5.73487 36.1032 5.3531 36.4701 4.85905 36.7257C4.35377 36.9814 3.75866 37.1148 3.0625 37.1148H1.05261V30.8453H3.0625C3.75866 30.8453 4.365 30.9676 4.85905 31.2233C5.3531 31.479 5.73487 31.8347 5.99312 32.3127C6.25138 32.7907 6.37488 33.3353 6.37488 33.9801C6.37488 34.6137 6.25138 35.1695 5.99312 35.6364ZM4.88149 35.7586C5.3194 35.3362 5.53276 34.7471 5.53276 33.9801C5.53276 33.2131 5.3194 32.6239 4.88149 32.2015C4.44359 31.7791 3.81479 31.5679 2.98389 31.5679H1.84985V36.3923H2.98389C3.81479 36.3923 4.44359 36.1811 4.88149 35.7586Z" fill="#3C2B4A"/>
<path d="M10.5408 31.5012V33.6466H12.9436V34.2691H10.5408V36.459H13.2131V37.1148H9.72107V30.8453H13.2131V31.5012H10.5408Z" fill="#3C2B4A"/>
<path d="M20.3096 36.3145C20.1636 36.5702 19.9502 36.7814 19.6583 36.937C19.3664 37.0926 19.007 37.1816 18.5691 37.1816C18.1537 37.1816 17.7719 37.1037 17.4463 36.9592C17.1207 36.8036 16.8624 36.6035 16.6603 36.3367C16.4695 36.0699 16.3571 35.7698 16.3235 35.4363H17.1993C17.2217 35.6142 17.2779 35.792 17.3789 35.9588C17.48 36.1255 17.6372 36.27 17.8281 36.3812C18.0189 36.4924 18.2547 36.5479 18.5355 36.5479C18.8948 36.5479 19.1755 36.459 19.3664 36.2589C19.5573 36.0588 19.6583 35.8254 19.6583 35.5253C19.6583 35.2696 19.5909 35.0584 19.4562 34.9028C19.3214 34.7471 19.153 34.6137 18.9621 34.5248C18.7713 34.4359 18.4905 34.3358 18.1537 34.2247C17.7495 34.0913 17.4351 33.969 17.1881 33.8578C16.941 33.7467 16.7389 33.5688 16.5705 33.3354C16.4021 33.1019 16.3123 32.8018 16.3123 32.4239C16.3123 32.1015 16.3908 31.8125 16.548 31.5568C16.7052 31.3123 16.9298 31.1122 17.233 30.9788C17.5249 30.8454 17.8842 30.7787 18.2772 30.7787C18.8948 30.7787 19.4 30.9232 19.7593 31.2233C20.1299 31.5235 20.332 31.9014 20.3994 32.3683H19.5236C19.4786 32.1237 19.3439 31.9014 19.1418 31.7124C18.9285 31.5235 18.6477 31.4234 18.2884 31.4234C17.9628 31.4234 17.6933 31.5124 17.5025 31.6791C17.3004 31.8458 17.2105 32.0904 17.2105 32.3905C17.2105 32.6351 17.2779 32.8352 17.4014 32.9797C17.5361 33.1353 17.6933 33.2465 17.8842 33.3354C18.0751 33.4243 18.3446 33.5132 18.6702 33.6244C19.0744 33.7578 19.4 33.8801 19.6583 34.0024C19.9053 34.1246 20.1186 34.3025 20.2871 34.5359C20.4555 34.7694 20.5453 35.0917 20.5453 35.4919C20.5229 35.7809 20.4555 36.0588 20.3096 36.3145Z" fill="#3C2B4A"/>
<path d="M24.6883 30.8453V37.1148H23.8687V30.8453H24.6883Z" fill="#3C2B4A"/>
<path d="M32.9749 31.3234C33.4802 31.6903 33.817 32.1794 33.9855 32.8019H33.1209C32.9749 32.4239 32.7167 32.1127 32.3686 31.8904C32.0205 31.6569 31.6051 31.5458 31.1223 31.5458C30.6956 31.5458 30.3025 31.6458 29.9657 31.8459C29.6288 32.046 29.3594 32.3239 29.1573 32.6907C28.9664 33.0576 28.8653 33.4911 28.8653 33.9913C28.8653 34.5026 28.9664 34.9473 29.1573 35.3141C29.3482 35.6809 29.6289 35.97 29.9769 36.1701C30.325 36.3701 30.7293 36.4702 31.1896 36.4702C31.5826 36.4702 31.9307 36.3813 32.2563 36.2256C32.5819 36.0589 32.8402 35.8143 33.0535 35.5031C33.2668 35.1918 33.3791 34.8139 33.4241 34.3915H30.9314V33.7912H34.109V34.536C34.0528 35.0362 33.8957 35.4809 33.6374 35.8922C33.3791 36.3035 33.0311 36.6147 32.5932 36.8481C32.1553 37.0816 31.6612 37.2038 31.0998 37.2038C30.4934 37.2038 29.9545 37.0705 29.4829 36.8037C29.0113 36.5369 28.652 36.1589 28.3937 35.6698C28.1355 35.1918 28.0007 34.636 28.0007 34.0135C28.0007 33.391 28.1355 32.8352 28.3937 32.3572C28.652 31.8792 29.0225 31.4902 29.4829 31.2234C29.9432 30.9566 30.4822 30.8121 31.0885 30.8121C31.8521 30.7899 32.4697 30.9677 32.9749 31.3234Z" fill="#3C2B4A"/>
<path d="M42.3955 37.1148H41.5759L38.286 32.157V37.1148H37.4663V30.8453H38.286L41.5759 35.8031V30.8453H42.3955V37.1148Z" fill="#3C2B4A"/>
<path d="M54.2076 36.3145C54.0617 36.5702 53.8483 36.7814 53.5564 36.937C53.2644 37.0926 52.9051 37.1816 52.4672 37.1816C52.0518 37.1816 51.67 37.1037 51.3444 36.9592C51.0188 36.8036 50.7605 36.6035 50.5584 36.3367C50.3675 36.0699 50.2553 35.7698 50.2216 35.4363H51.0973C51.1198 35.6142 51.176 35.792 51.277 35.9588C51.3781 36.1255 51.5352 36.27 51.7261 36.3812C51.917 36.4924 52.1528 36.5479 52.4335 36.5479C52.7928 36.5479 53.0735 36.459 53.2644 36.2589C53.4553 36.0588 53.5564 35.8254 53.5564 35.5253C53.5564 35.2696 53.489 35.0584 53.3543 34.9028C53.2195 34.7471 53.0511 34.6137 52.8602 34.5248C52.6693 34.4359 52.3886 34.3358 52.0518 34.2247C51.6476 34.0913 51.3331 33.969 51.0861 33.8578C50.8391 33.7467 50.637 33.5688 50.4686 33.3354C50.3001 33.1019 50.2103 32.8018 50.2103 32.4239C50.2103 32.1015 50.2889 31.8125 50.4461 31.5568C50.6033 31.3123 50.8279 31.1122 51.1311 30.9788C51.423 30.8454 51.7823 30.7787 52.1753 30.7787C52.7929 30.7787 53.2981 30.9232 53.6574 31.2233C54.028 31.5235 54.2301 31.9014 54.2975 32.3683H53.4216C53.3767 32.1237 53.2419 31.9014 53.0398 31.7124C52.8265 31.5235 52.5458 31.4234 52.1865 31.4234C51.8609 31.4234 51.5914 31.5124 51.4005 31.6791C51.1984 31.8458 51.1086 32.0904 51.1086 32.3905C51.1086 32.6351 51.1759 32.8352 51.2994 32.9797C51.4342 33.1353 51.5914 33.2465 51.7823 33.3354C51.9731 33.4243 52.2426 33.5132 52.5683 33.6244C52.9725 33.7578 53.2981 33.8801 53.5564 34.0024C53.8034 34.1246 54.0167 34.3025 54.1851 34.5359C54.3536 34.7694 54.4434 35.0917 54.4434 35.4919C54.4209 35.7809 54.3536 36.0588 54.2076 36.3145Z" fill="#3C2B4A"/>
<path d="M61.6521 30.8453V31.5012H59.8667V37.1148H59.0358V31.5012H57.2505V30.8453H61.6521Z" fill="#3C2B4A"/>
<path d="M65.4705 30.8453V34.6025C65.4705 35.2139 65.6052 35.6697 65.886 35.9698C66.1667 36.2588 66.5372 36.4144 67.0313 36.4144C67.5141 36.4144 67.8846 36.2699 68.1541 35.9698C68.4236 35.6697 68.5583 35.225 68.5583 34.6136V30.8564H69.378V34.6136C69.378 35.4696 69.1647 36.1143 68.738 36.5367C68.3113 36.9702 67.7386 37.1814 67.02 37.1814C66.3126 37.1814 65.74 36.9702 65.3134 36.5367C64.8867 36.1032 64.6733 35.4696 64.6733 34.6136V30.8564H65.4705V30.8453Z" fill="#3C2B4A"/>
<path d="M77.8323 35.6364C77.574 36.1032 77.1923 36.4701 76.6982 36.7257C76.1929 36.9814 75.5979 37.1148 74.9017 37.1148H72.8918V30.8453H74.9017C75.5979 30.8453 76.2042 30.9676 76.6982 31.2233C77.1923 31.479 77.574 31.8347 77.8323 32.3127C78.0905 32.7907 78.2141 33.3353 78.2141 33.9801C78.2141 34.6137 78.0905 35.1695 77.8323 35.6364ZM76.7319 35.7586C77.1698 35.3362 77.3832 34.7471 77.3832 33.9801C77.3832 33.2131 77.1698 32.6239 76.7319 32.2015C76.294 31.7791 75.6652 31.5679 74.8343 31.5679H73.7003V36.3923H74.8343C75.654 36.3923 76.294 36.1811 76.7319 35.7586Z" fill="#3C2B4A"/>
<path d="M82.3907 30.8453V37.1148H81.571V30.8453H82.3907Z" fill="#3C2B4A"/>
<path d="M90.4305 31.1789C90.9021 31.4568 91.2726 31.8348 91.5421 32.3239C91.8116 32.813 91.9463 33.3688 91.9463 33.9802C91.9463 34.5916 91.8116 35.1474 91.5421 35.6365C91.2726 36.1256 90.9021 36.5035 90.4305 36.7814C89.9589 37.0593 89.4312 37.1927 88.8473 37.1927C88.2634 37.1927 87.7245 37.0593 87.2529 36.7814C86.7813 36.5035 86.3995 36.1256 86.13 35.6365C85.8606 35.1474 85.7258 34.5916 85.7258 33.9802C85.7258 33.3688 85.8606 32.813 86.13 32.3239C86.3995 31.8348 86.7701 31.4568 87.2529 31.1789C87.7357 30.901 88.2634 30.7676 88.8473 30.7676C89.4312 30.7676 89.9589 30.901 90.4305 31.1789ZM87.6683 31.8237C87.3202 32.0238 87.0508 32.3017 86.8599 32.6796C86.669 33.0464 86.568 33.48 86.568 33.9802C86.568 34.4693 86.669 34.9028 86.8599 35.2808C87.0508 35.6587 87.3202 35.9366 87.6683 36.1367C88.0164 36.3368 88.3981 36.4368 88.836 36.4368C89.2627 36.4368 89.6558 36.3368 90.0038 36.1367C90.3519 35.9366 90.6214 35.6476 90.8122 35.2808C91.0031 34.9139 91.1042 34.4804 91.1042 33.9913C91.1042 33.4911 91.0031 33.0576 90.8122 32.6907C90.6214 32.3239 90.3519 32.0349 90.0038 31.8348C89.6558 31.6347 89.2739 31.5346 88.836 31.5346C88.4094 31.5235 88.0164 31.6236 87.6683 31.8237Z" fill="#3C2B4A"/>
</svg>
