<svg width="46" height="48" viewBox="0 0 46 48" fill="none" xmlns="http://www.w3.org/2000/svg">
<path id="&#226;&#128;&#156;" d="M36.6084 21.501C32.8521 21.501 30.0508 20.5778 28.2044 18.7315C26.2944 16.8851 25.3394 14.4021 25.3394 11.2825C25.3394 8.29012 26.2944 5.80712 28.2044 3.83346C30.1145 1.85979 32.5338 0.872955 35.4624 0.872955C38.3911 0.872956 40.8741 2.11446 42.9114 4.59746C44.9488 7.14412 45.9674 10.8368 45.9674 15.6755C45.9674 21.1508 45.2034 26.0213 43.6754 30.287C42.0838 34.6163 39.8554 38.1816 36.9904 40.983C34.0618 43.848 30.5601 45.8535 26.4854 46.9995C26.1671 47.1268 25.9124 47.1586 25.7214 47.095C25.5304 47.095 25.4031 46.9995 25.3394 46.8085C25.2758 46.6175 25.3076 46.4265 25.4349 46.2355C25.5623 46.0445 25.7533 45.9171 26.0079 45.8535C29.8279 44.6438 32.9476 42.7656 35.3669 40.219C37.7226 37.736 39.4734 34.9983 40.6194 32.006C41.7018 29.0773 42.2429 26.3396 42.2429 23.793C42.2429 23.0926 42.0838 22.5196 41.7654 22.074C41.3834 21.692 40.7786 21.501 39.9509 21.501H36.6084ZM11.3964 21.5965C7.70378 21.5965 4.93428 20.6733 3.08795 18.8269C1.17795 16.9806 0.222949 14.4976 0.222949 11.378C0.222949 8.38562 1.17795 5.90261 3.08795 3.92895C4.99795 1.95529 7.38545 0.968457 10.2504 0.968458C13.1791 0.968458 15.6621 2.20996 17.6994 4.69295C19.7368 7.23962 20.7554 10.9005 20.7554 15.6755C20.7554 21.2145 19.9914 26.1168 18.4634 30.3825C16.9354 34.7118 14.7389 38.2771 11.8739 41.0785C8.94528 43.9435 5.44361 45.9489 1.36894 47.0949C0.986944 47.2223 0.700444 47.2541 0.509445 47.1905C0.318446 47.1905 0.191111 47.095 0.127441 46.9039C0.127441 46.7129 0.191109 46.522 0.318445 46.331C0.382111 46.14 0.57311 45.9808 0.891443 45.8534C4.64778 44.7075 7.73561 42.8611 10.1549 40.3145C12.5743 37.7678 14.3569 34.9983 15.5029 32.006C16.5853 29.0773 17.1264 26.3715 17.1264 23.8885C17.1264 23.1881 16.9354 22.6151 16.5534 22.1695C16.1714 21.7875 15.5666 21.5965 14.7389 21.5965H11.3964Z" fill="#527CEB"/>
</svg>
