<svg width="192" height="29" viewBox="0 0 192 29" fill="none" xmlns="http://www.w3.org/2000/svg">
<path d="M16.1238 3.02C16.6438 3.28 16.9438 3.69 17.0238 4.25C17.1238 4.81 16.9838 5.32 16.6038 5.78C16.3438 6.14 16.0038 6.34 15.5838 6.38C15.1838 6.42 14.7738 6.34 14.3538 6.14C13.8738 5.92 13.3638 5.75 12.8238 5.63C12.3038 5.51 11.7538 5.45 11.1738 5.45C10.0938 5.45 9.12383 5.62 8.26383 5.96C7.42383 6.3 6.70383 6.79 6.10383 7.43C5.50383 8.05 5.04383 8.79 4.72383 9.65C4.42383 10.51 4.27383 11.46 4.27383 12.5C4.27383 13.72 4.44383 14.78 4.78383 15.68C5.14383 16.58 5.63383 17.33 6.25383 17.93C6.87383 18.53 7.60383 18.98 8.44383 19.28C9.28383 19.56 10.1938 19.7 11.1738 19.7C11.7138 19.7 12.2538 19.65 12.7938 19.55C13.3338 19.45 13.8538 19.27 14.3538 19.01C14.7738 18.81 15.1838 18.74 15.5838 18.8C16.0038 18.86 16.3538 19.07 16.6338 19.43C17.0338 19.93 17.1738 20.45 17.0538 20.99C16.9538 21.51 16.6538 21.89 16.1538 22.13C15.6338 22.39 15.0938 22.61 14.5338 22.79C13.9938 22.95 13.4438 23.07 12.8838 23.15C12.3238 23.25 11.7538 23.3 11.1738 23.3C9.73383 23.3 8.36383 23.07 7.06383 22.61C5.78383 22.15 4.63383 21.47 3.61383 20.57C2.61383 19.67 1.82383 18.55 1.24383 17.21C0.663828 15.85 0.373828 14.28 0.373828 12.5C0.373828 10.96 0.633828 9.54 1.15383 8.24C1.69383 6.94 2.44383 5.82 3.40383 4.88C4.38383 3.92 5.53383 3.18 6.85383 2.66C8.17383 2.12 9.61383 1.85 11.1738 1.85C12.0538 1.85 12.9138 1.95 13.7538 2.15C14.5938 2.35 15.3838 2.64 16.1238 3.02ZM28.3624 6.65C29.8024 6.65 30.8924 6.96 31.6324 7.58C32.3924 8.2 32.9124 9.03 33.1924 10.07C33.4724 11.09 33.6124 12.23 33.6124 13.49V21.17C33.6124 21.69 33.4424 22.13 33.1024 22.49C32.7624 22.83 32.3324 23 31.8124 23C31.2924 23 30.8624 22.83 30.5224 22.49C30.1824 22.13 30.0124 21.69 30.0124 21.17V13.49C30.0124 12.83 29.9324 12.24 29.7724 11.72C29.6124 11.18 29.3224 10.75 28.9024 10.43C28.4824 10.11 27.8824 9.95 27.1024 9.95C26.3424 9.95 25.6924 10.11 25.1524 10.43C24.6124 10.75 24.2024 11.18 23.9224 11.72C23.6624 12.24 23.5324 12.83 23.5324 13.49V21.17C23.5324 21.69 23.3624 22.13 23.0224 22.49C22.6824 22.83 22.2524 23 21.7324 23C21.2124 23 20.7824 22.83 20.4424 22.49C20.1024 22.13 19.9324 21.69 19.9324 21.17V2.63C19.9324 2.11 20.1024 1.68 20.4424 1.34C20.7824 0.979999 21.2124 0.8 21.7324 0.8C22.2524 0.8 22.6824 0.979999 23.0224 1.34C23.3624 1.68 23.5324 2.11 23.5324 2.63V10.07L23.0824 9.98C23.2624 9.64 23.5124 9.28 23.8324 8.9C24.1524 8.5 24.5424 8.13 25.0024 7.79C25.4624 7.45 25.9724 7.18 26.5324 6.98C27.0924 6.76 27.7024 6.65 28.3624 6.65ZM45.0705 23.3C43.3705 23.3 41.8905 22.95 40.6305 22.25C39.3905 21.53 38.4305 20.56 37.7505 19.34C37.0905 18.12 36.7605 16.74 36.7605 15.2C36.7605 13.4 37.1205 11.87 37.8405 10.61C38.5805 9.33 39.5405 8.35 40.7205 7.67C41.9005 6.99 43.1505 6.65 44.4705 6.65C45.4905 6.65 46.4505 6.86 47.3505 7.28C48.2705 7.7 49.0805 8.28 49.7805 9.02C50.4805 9.74 51.0305 10.58 51.4305 11.54C51.8505 12.5 52.0605 13.52 52.0605 14.6C52.0405 15.08 51.8505 15.47 51.4905 15.77C51.1305 16.07 50.7105 16.22 50.2305 16.22H38.7705L37.8705 13.22H48.8805L48.2205 13.82V13.01C48.1805 12.43 47.9705 11.91 47.5905 11.45C47.2305 10.99 46.7705 10.63 46.2105 10.37C45.6705 10.09 45.0905 9.95 44.4705 9.95C43.8705 9.95 43.3105 10.03 42.7905 10.19C42.2705 10.35 41.8205 10.62 41.4405 11C41.0605 11.38 40.7605 11.89 40.5405 12.53C40.3205 13.17 40.2105 13.98 40.2105 14.96C40.2105 16.04 40.4305 16.96 40.8705 17.72C41.3305 18.46 41.9105 19.03 42.6105 19.43C43.3305 19.81 44.0905 20 44.8905 20C45.6305 20 46.2205 19.94 46.6605 19.82C47.1005 19.7 47.4505 19.56 47.7105 19.4C47.9905 19.22 48.2405 19.07 48.4605 18.95C48.8205 18.77 49.1605 18.68 49.4805 18.68C49.9205 18.68 50.2805 18.83 50.5605 19.13C50.8605 19.43 51.0105 19.78 51.0105 20.18C51.0105 20.72 50.7305 21.21 50.1705 21.65C49.6505 22.09 48.9205 22.48 47.9805 22.82C47.0405 23.14 46.0705 23.3 45.0705 23.3ZM57.0059 23C56.4859 23 56.0559 22.83 55.7159 22.49C55.3759 22.13 55.2059 21.69 55.2059 21.17V8.78C55.2059 8.26 55.3759 7.83 55.7159 7.49C56.0559 7.13 56.4859 6.95 57.0059 6.95C57.5259 6.95 57.9559 7.13 58.2959 7.49C58.6359 7.83 58.8059 8.26 58.8059 8.78V11.6L58.5959 9.59C58.8159 9.11 59.0959 8.69 59.4359 8.33C59.7959 7.95 60.1959 7.64 60.6359 7.4C61.0759 7.14 61.5459 6.95 62.0459 6.83C62.5459 6.71 63.0459 6.65 63.5459 6.65C64.1459 6.65 64.6459 6.82 65.0459 7.16C65.4659 7.5 65.6759 7.9 65.6759 8.36C65.6759 9.02 65.5059 9.5 65.1659 9.8C64.8259 10.08 64.4559 10.22 64.0559 10.22C63.6759 10.22 63.3259 10.15 63.0059 10.01C62.7059 9.87 62.3559 9.8 61.9559 9.8C61.5959 9.8 61.2259 9.89 60.8459 10.07C60.4859 10.23 60.1459 10.49 59.8259 10.85C59.5259 11.21 59.2759 11.66 59.0759 12.2C58.8959 12.72 58.8059 13.34 58.8059 14.06V21.17C58.8059 21.69 58.6359 22.13 58.2959 22.49C57.9559 22.83 57.5259 23 57.0059 23ZM70.0137 23C69.4937 23 69.0637 22.83 68.7237 22.49C68.3837 22.13 68.2137 21.69 68.2137 21.17V8.78C68.2137 8.26 68.3837 7.83 68.7237 7.49C69.0637 7.13 69.4937 6.95 70.0137 6.95C70.5337 6.95 70.9637 7.13 71.3037 7.49C71.6437 7.83 71.8137 8.26 71.8137 8.78V11.6L71.6037 9.59C71.8237 9.11 72.1037 8.69 72.4437 8.33C72.8037 7.95 73.2037 7.64 73.6437 7.4C74.0837 7.14 74.5537 6.95 75.0537 6.83C75.5537 6.71 76.0537 6.65 76.5537 6.65C77.1537 6.65 77.6537 6.82 78.0537 7.16C78.4737 7.5 78.6837 7.9 78.6837 8.36C78.6837 9.02 78.5137 9.5 78.1737 9.8C77.8337 10.08 77.4637 10.22 77.0637 10.22C76.6837 10.22 76.3337 10.15 76.0137 10.01C75.7137 9.87 75.3637 9.8 74.9637 9.8C74.6037 9.8 74.2337 9.89 73.8537 10.07C73.4937 10.23 73.1537 10.49 72.8337 10.85C72.5337 11.21 72.2837 11.66 72.0837 12.2C71.9037 12.72 71.8137 13.34 71.8137 14.06V21.17C71.8137 21.69 71.6437 22.13 71.3037 22.49C70.9637 22.83 70.5337 23 70.0137 23ZM93.1315 6.95C93.6515 6.95 94.0815 7.13 94.4215 7.49C94.7615 7.83 94.9315 8.26 94.9315 8.78V21.53C94.9315 23.37 94.5815 24.83 93.8815 25.91C93.2015 27.01 92.2815 27.8 91.1215 28.28C89.9615 28.76 88.6615 29 87.2215 29C86.5815 29 85.9015 28.95 85.1815 28.85C84.4615 28.75 83.8715 28.6 83.4115 28.4C82.8115 28.14 82.3915 27.81 82.1515 27.41C81.9315 27.03 81.8915 26.62 82.0315 26.18C82.2115 25.6 82.5015 25.2 82.9015 24.98C83.3015 24.78 83.7215 24.76 84.1615 24.92C84.4815 25.02 84.9015 25.17 85.4215 25.37C85.9415 25.59 86.5415 25.7 87.2215 25.7C88.1415 25.7 88.9015 25.57 89.5015 25.31C90.1215 25.07 90.5815 24.65 90.8815 24.05C91.2015 23.47 91.3615 22.67 91.3615 21.65V19.64L91.9915 20.36C91.6515 21.02 91.2215 21.57 90.7015 22.01C90.2015 22.43 89.6015 22.75 88.9015 22.97C88.2015 23.19 87.4015 23.3 86.5015 23.3C85.4415 23.3 84.5115 23.06 83.7115 22.58C82.9315 22.08 82.3215 21.4 81.8815 20.54C81.4415 19.66 81.2215 18.66 81.2215 17.54V8.78C81.2215 8.26 81.3915 7.83 81.7315 7.49C82.0715 7.13 82.5015 6.95 83.0215 6.95C83.5415 6.95 83.9715 7.13 84.3115 7.49C84.6515 7.83 84.8215 8.26 84.8215 8.78V16.46C84.8215 17.76 85.1015 18.68 85.6615 19.22C86.2415 19.74 87.0415 20 88.0615 20C88.7615 20 89.3515 19.87 89.8315 19.61C90.3115 19.33 90.6815 18.93 90.9415 18.41C91.2015 17.87 91.3315 17.22 91.3315 16.46V8.78C91.3315 8.26 91.5015 7.83 91.8415 7.49C92.1815 7.13 92.6115 6.95 93.1315 6.95ZM103.389 5.03C103.389 5.69 103.199 6.36 102.819 7.04C102.459 7.7 101.979 8.26 101.379 8.72C100.799 9.16 100.179 9.38 99.5189 9.38C99.2989 9.38 99.0589 9.29 98.7989 9.11C98.5589 8.93 98.4389 8.62 98.4389 8.18C98.4389 7.72 98.5789 7.45 98.8589 7.37C99.1589 7.27 99.4089 7.17 99.6089 7.07C99.8689 6.93 100.069 6.77 100.209 6.59C100.369 6.39 100.449 6.15 100.449 5.87C100.449 5.65 100.339 5.46 100.119 5.3C99.9189 5.12 99.6489 5.03 99.3089 5.03C99.1889 5.03 99.0489 5.05 98.8889 5.09C98.7289 5.11 98.5889 5.16 98.4689 5.24C98.2689 5.14 98.0889 5.02 97.9289 4.88C97.7889 4.72 97.7189 4.47 97.7189 4.13C97.7189 3.51 97.9989 2.98 98.5589 2.54C99.1389 2.08 99.8089 1.85 100.569 1.85C101.429 1.85 102.109 2.14 102.609 2.72C103.129 3.3 103.389 4.07 103.389 5.03ZM106.161 20.51C105.961 20.23 105.871 19.87 105.891 19.43C105.911 18.99 106.171 18.61 106.671 18.29C106.991 18.09 107.331 18.01 107.691 18.05C108.051 18.07 108.401 18.25 108.741 18.59C109.321 19.17 109.931 19.62 110.571 19.94C111.211 20.26 112.011 20.42 112.971 20.42C113.271 20.4 113.601 20.36 113.961 20.3C114.321 20.22 114.631 20.06 114.891 19.82C115.171 19.56 115.311 19.17 115.311 18.65C115.311 18.21 115.161 17.86 114.861 17.6C114.561 17.34 114.161 17.12 113.661 16.94C113.181 16.76 112.641 16.59 112.041 16.43C111.421 16.25 110.781 16.05 110.121 15.83C109.481 15.61 108.891 15.33 108.351 14.99C107.811 14.63 107.371 14.16 107.031 13.58C106.691 13 106.521 12.27 106.521 11.39C106.521 10.39 106.801 9.54 107.361 8.84C107.921 8.14 108.641 7.6 109.521 7.22C110.421 6.84 111.361 6.65 112.341 6.65C112.961 6.65 113.611 6.73 114.291 6.89C114.971 7.03 115.621 7.27 116.241 7.61C116.861 7.93 117.381 8.36 117.801 8.9C118.021 9.2 118.151 9.56 118.191 9.98C118.231 10.4 118.041 10.78 117.621 11.12C117.321 11.36 116.971 11.47 116.571 11.45C116.171 11.41 115.841 11.27 115.581 11.03C115.241 10.59 114.781 10.24 114.201 9.98C113.641 9.72 112.991 9.59 112.251 9.59C111.951 9.59 111.621 9.63 111.261 9.71C110.921 9.77 110.621 9.92 110.361 10.16C110.101 10.38 109.971 10.74 109.971 11.24C109.971 11.7 110.121 12.07 110.421 12.35C110.721 12.61 111.121 12.83 111.621 13.01C112.141 13.17 112.691 13.33 113.271 13.49C113.871 13.65 114.481 13.84 115.101 14.06C115.721 14.28 116.291 14.57 116.811 14.93C117.331 15.29 117.751 15.76 118.071 16.34C118.391 16.9 118.551 17.62 118.551 18.5C118.551 19.52 118.251 20.39 117.651 21.11C117.051 21.83 116.301 22.38 115.401 22.76C114.501 23.12 113.581 23.3 112.641 23.3C111.461 23.3 110.281 23.1 109.101 22.7C107.921 22.28 106.941 21.55 106.161 20.51ZM138.221 0.8C138.661 0.8 139.091 0.86 139.511 0.979999C139.931 1.1 140.281 1.3 140.561 1.58C140.841 1.84 140.981 2.19 140.981 2.63C140.981 3.13 140.831 3.53 140.531 3.83C140.251 4.11 139.921 4.25 139.541 4.25C139.361 4.25 139.091 4.21 138.731 4.13C138.371 4.03 138.021 3.98 137.681 3.98C137.181 3.98 136.791 4.09 136.511 4.31C136.251 4.53 136.071 4.79 135.971 5.09C135.871 5.37 135.821 5.62 135.821 5.84V21.17C135.821 21.69 135.651 22.13 135.311 22.49C134.971 22.83 134.541 23 134.021 23C133.501 23 133.071 22.83 132.731 22.49C132.391 22.13 132.221 21.69 132.221 21.17V5.87C132.221 4.45 132.721 3.25 133.721 2.27C134.721 1.29 136.221 0.8 138.221 0.8ZM138.551 7.25C139.031 7.25 139.431 7.41 139.751 7.73C140.071 8.03 140.231 8.42 140.231 8.9C140.231 9.38 140.071 9.78 139.751 10.1C139.431 10.4 139.031 10.55 138.551 10.55H130.601C130.121 10.55 129.721 10.4 129.401 10.1C129.081 9.78 128.921 9.38 128.921 8.9C128.921 8.42 129.081 8.03 129.401 7.73C129.721 7.41 130.121 7.25 130.601 7.25H138.551ZM157.729 14.99C157.729 16.63 157.359 18.08 156.619 19.34C155.899 20.58 154.919 21.55 153.679 22.25C152.459 22.95 151.089 23.3 149.569 23.3C148.049 23.3 146.669 22.95 145.429 22.25C144.209 21.55 143.229 20.58 142.489 19.34C141.769 18.08 141.409 16.63 141.409 14.99C141.409 13.35 141.769 11.91 142.489 10.67C143.229 9.41 144.209 8.43 145.429 7.73C146.669 7.01 148.049 6.65 149.569 6.65C151.089 6.65 152.459 7.01 153.679 7.73C154.919 8.43 155.899 9.41 156.619 10.67C157.359 11.91 157.729 13.35 157.729 14.99ZM154.129 14.99C154.129 13.97 153.919 13.09 153.499 12.35C153.099 11.59 152.549 11 151.849 10.58C151.169 10.16 150.409 9.95 149.569 9.95C148.729 9.95 147.959 10.16 147.259 10.58C146.579 11 146.029 11.59 145.609 12.35C145.209 13.09 145.009 13.97 145.009 14.99C145.009 15.99 145.209 16.87 145.609 17.63C146.029 18.37 146.579 18.95 147.259 19.37C147.959 19.79 148.729 20 149.569 20C150.409 20 151.169 19.79 151.849 19.37C152.549 18.95 153.099 18.37 153.499 17.63C153.919 16.87 154.129 15.99 154.129 14.99ZM164.78 21.17C164.78 21.69 164.6 22.13 164.24 22.49C163.9 22.83 163.47 23 162.95 23C162.45 23 162.03 22.83 161.69 22.49C161.35 22.13 161.18 21.69 161.18 21.17V2.63C161.18 2.11 161.35 1.68 161.69 1.34C162.05 0.979999 162.49 0.8 163.01 0.8C163.53 0.8 163.95 0.979999 164.27 1.34C164.61 1.68 164.78 2.11 164.78 2.63V21.17ZM172.356 21.17C172.356 21.69 172.186 22.13 171.846 22.49C171.506 22.83 171.076 23 170.556 23C170.036 23 169.606 22.83 169.266 22.49C168.926 22.13 168.756 21.69 168.756 21.17V8.78C168.756 8.26 168.926 7.83 169.266 7.49C169.606 7.13 170.036 6.95 170.556 6.95C171.076 6.95 171.506 7.13 171.846 7.49C172.186 7.83 172.356 8.26 172.356 8.78V21.17ZM170.526 5C169.846 5 169.366 4.89 169.086 4.67C168.806 4.45 168.666 4.06 168.666 3.5V2.93C168.666 2.35 168.816 1.96 169.116 1.76C169.436 1.54 169.916 1.43 170.556 1.43C171.256 1.43 171.746 1.54 172.026 1.76C172.306 1.98 172.446 2.37 172.446 2.93V3.5C172.446 4.08 172.296 4.48 171.996 4.7C171.696 4.9 171.206 5 170.526 5ZM191.625 14.99C191.625 16.63 191.255 18.08 190.515 19.34C189.795 20.58 188.815 21.55 187.575 22.25C186.355 22.95 184.985 23.3 183.465 23.3C181.945 23.3 180.565 22.95 179.325 22.25C178.105 21.55 177.125 20.58 176.385 19.34C175.665 18.08 175.305 16.63 175.305 14.99C175.305 13.35 175.665 11.91 176.385 10.67C177.125 9.41 178.105 8.43 179.325 7.73C180.565 7.01 181.945 6.65 183.465 6.65C184.985 6.65 186.355 7.01 187.575 7.73C188.815 8.43 189.795 9.41 190.515 10.67C191.255 11.91 191.625 13.35 191.625 14.99ZM188.025 14.99C188.025 13.97 187.815 13.09 187.395 12.35C186.995 11.59 186.445 11 185.745 10.58C185.065 10.16 184.305 9.95 183.465 9.95C182.625 9.95 181.855 10.16 181.155 10.58C180.475 11 179.925 11.59 179.505 12.35C179.105 13.09 178.905 13.97 178.905 14.99C178.905 15.99 179.105 16.87 179.505 17.63C179.925 18.37 180.475 18.95 181.155 19.37C181.855 19.79 182.625 20 183.465 20C184.305 20 185.065 19.79 185.745 19.37C186.445 18.95 186.995 18.37 187.395 17.63C187.815 16.87 188.025 15.99 188.025 14.99Z" fill="#3C2B4A"/>
</svg>
