<svg width="141" height="157" viewBox="0 0 141 157" fill="none" xmlns="http://www.w3.org/2000/svg">
<path d="M106.364 0.912031C124.563 14.9234 136.451 35.5906 139.413 58.3671C142.374 81.1436 136.166 104.164 122.155 122.363C108.144 140.563 87.4764 152.451 64.6999 155.412C41.9234 158.374 18.9033 152.166 0.703794 138.155L25.4773 105.976C35.1425 113.417 47.3678 116.714 59.4637 115.141C71.5596 113.568 82.5354 107.255 89.9764 97.5897C97.4174 87.9245 100.714 75.6992 99.1414 63.6033C97.5687 51.5073 91.2553 40.5316 81.59 33.0906L106.364 0.912031Z" fill="url(#paint0_linear_1_440)"/>
<defs>
<linearGradient id="paint0_linear_1_440" x1="-1" y1="17.9998" x2="123.5" y2="136" gradientUnits="userSpaceOnUse">
<stop stop-color="#EC74FF" stop-opacity="0"/>
<stop offset="0.995857" stop-color="#69FDEF" stop-opacity="0.63"/>
</linearGradient>
</defs>
</svg>
